<svg width="224" height="197" viewBox="0 0 224 197" fill="none" xmlns="http://www.w3.org/2000/svg">
<path fill-rule="evenodd" clip-rule="evenodd" d="M202.642 107.773C202.642 156.499 163.141 196 114.415 196C65.6896 196 26.1895 156.499 26.1895 107.773C26.1895 59.0473 65.6896 19.5464 114.415 19.5464C163.141 19.5464 202.642 59.0473 202.642 107.773Z" stroke="#8F949D" stroke-opacity="0.74" stroke-width="0.850049" stroke-dasharray="4.26 4.26"/>
<path fill-rule="evenodd" clip-rule="evenodd" d="M179.933 107.773C179.933 143.957 150.599 173.291 114.415 173.291C78.2305 173.291 48.8987 143.957 48.8987 107.773C48.8987 71.5894 78.2305 42.2559 114.415 42.2559C150.599 42.2559 179.933 71.5894 179.933 107.773Z" stroke="#8F949D" stroke-opacity="0.74" stroke-width="0.850049" stroke-dasharray="4.29 4.29"/>
<path d="M9.52196 119.652L7.88391 119.602" stroke="#232C41" stroke-width="0.850049" stroke-linecap="round"/>
<path d="M8.34677 116.546L7.172 117.644" stroke="#232C41" stroke-width="0.850049" stroke-linecap="round"/>
<path d="M5.28503 115.128L5.26038 116.729" stroke="#232C41" stroke-width="0.850049" stroke-linecap="round"/>
<path d="M2.12927 116.228L3.27004 117.396" stroke="#232C41" stroke-width="0.850049" stroke-linecap="round"/>
<path d="M0.728394 119.202L2.36559 119.252" stroke="#232C41" stroke-width="0.850049" stroke-linecap="round"/>
<path d="M1.90308 122.307L3.07869 121.21" stroke="#232C41" stroke-width="0.850049" stroke-linecap="round"/>
<path d="M4.96533 123.726L4.98998 122.125" stroke="#232C41" stroke-width="0.850049" stroke-linecap="round"/>
<path d="M8.12111 122.626L6.98035 121.458" stroke="#232C41" stroke-width="0.850049" stroke-linecap="round"/>
<path d="M223.142 96.8193L222.422 97.5988" stroke="#232C41" stroke-width="0.850049" stroke-linecap="round"/>
<path d="M219.761 97.4966L220.305 97.9973" stroke="#232C41" stroke-width="0.850049" stroke-linecap="round"/>
<path d="M219.214 100.951L219.934 100.172" stroke="#232C41" stroke-width="0.850049" stroke-linecap="round"/>
<path d="M222.593 100.275L222.051 99.7739" stroke="#232C41" stroke-width="0.850049" stroke-linecap="round"/>
<path d="M157.198 5.20496L155.456 5.1582" stroke="#232C41" stroke-width="0.850049" stroke-linecap="round"/>
<path d="M152.691 1L152.664 2.48844" stroke="#232C41" stroke-width="0.850049" stroke-linecap="round"/>
<path d="M147.844 4.78613L149.585 4.83204" stroke="#232C41" stroke-width="0.850049" stroke-linecap="round"/>
<path d="M152.35 8.99137L152.377 7.50293" stroke="#232C41" stroke-width="0.850049" stroke-linecap="round"/>
<path fill-rule="evenodd" clip-rule="evenodd" d="M28.2166 165.915C26.9636 166.29 24.8768 168.131 24.1627 170.314C24.0429 168.286 22.755 165.737 21.338 165.37C23.067 164.758 24.9397 162.512 25.4378 160.619C25.3477 162.603 27.149 165.483 28.2166 165.915Z" fill="#146AA9" fill-opacity="0.89"/>
<path fill-rule="evenodd" clip-rule="evenodd" d="M57.5623 13.1772C56.5958 13.3481 54.883 14.5381 54.1621 16.1022C54.248 14.5815 53.5093 12.5711 52.4858 12.175C53.8264 11.869 55.416 10.3576 55.9506 8.99072C55.7118 10.4613 56.8041 12.7632 57.5623 13.1772Z" fill="#146AA9" fill-opacity="0.89"/>
<path fill-rule="evenodd" clip-rule="evenodd" d="M185.665 24.2206C184.374 24.1926 183.35 23.1241 183.379 21.8337C183.407 20.5433 184.476 19.5199 185.765 19.5479C187.056 19.576 188.08 20.6445 188.052 21.9349C188.023 23.2252 186.955 24.2487 185.665 24.2206Z" fill="#48BD69"/>
<path fill-rule="evenodd" clip-rule="evenodd" d="M185.671 177.359C184.548 177.335 183.657 176.404 183.681 175.281C183.704 174.158 184.635 173.267 185.759 173.291C186.883 173.315 187.774 174.245 187.749 175.369C187.724 176.492 186.794 177.383 185.671 177.359Z" fill="#146AA9" fill-opacity="0.89"/>
<path fill-rule="evenodd" clip-rule="evenodd" d="M16.7285 55.2358C16.0332 55.2205 15.4815 54.645 15.4968 53.9488C15.5112 53.2535 16.0876 52.7026 16.7829 52.7171C17.4782 52.7324 18.0299 53.3079 18.0155 54.0032C18.0002 54.6994 17.4238 55.2511 16.7285 55.2358Z" stroke="#232C41" stroke-width="0.850049" stroke-linecap="round"/>
<path d="M115.06 161.996C144.588 161.996 168.525 138.059 168.525 108.531C168.525 79.0033 144.588 55.0663 115.06 55.0663C85.5321 55.0663 61.5951 79.0033 61.5951 108.531C61.5951 138.059 85.5321 161.996 115.06 161.996Z" fill="#48BD69" stroke="#A8F6BE" stroke-width="10.8742"/>
<path fill-rule="evenodd" clip-rule="evenodd" d="M127.99 99.5254L110.38 117.136L102.376 109.131" fill="#48BD69"/>
<path d="M127.99 99.5254L110.38 117.136L102.376 109.131" stroke="white" stroke-width="5.4371" stroke-linecap="round" stroke-linejoin="round"/>
</svg>
