<svg width="70" height="70" viewBox="0 0 70 70" fill="none" xmlns="http://www.w3.org/2000/svg">
<path id="Loading" d="M59.9056 48.8176C63.0536 50.5641 64.2314 54.5834 61.9322 57.3535C57.8334 62.2919 52.4257 66.0424 46.2707 68.1359C38.0436 70.9343 29.0696 70.5719 21.0949 67.1195C13.1202 63.667 6.71494 57.3713 3.12546 49.4573C-0.464022 41.5433 -0.981044 32.5769 1.67498 24.3028C4.33101 16.0286 9.97012 9.03842 17.4952 4.6922C25.0202 0.345976 33.893 -1.04543 42.3873 0.788689C50.8815 2.62281 58.3897 7.55129 63.451 14.6152C67.2375 19.9 69.4519 26.0973 69.9107 32.4987C70.168 36.0894 66.8709 38.6722 63.2946 38.2602C59.7183 37.8481 57.2523 34.5636 56.6003 31.0232C56.0198 27.8706 54.7514 24.8568 52.8537 22.2082C49.6776 17.7754 44.966 14.6827 39.6357 13.5317C34.3054 12.3808 28.7375 13.2539 24.0154 15.9813C19.2932 18.7086 15.7545 23.0951 14.0878 28.2873C12.4211 33.4796 12.7456 39.1061 14.998 44.0724C17.2505 49.0386 21.2699 52.9893 26.2743 55.1558C31.2786 57.3223 36.9099 57.5497 42.0726 55.7936C45.1574 54.7444 47.943 53.032 50.2499 50.8063C52.8407 48.3067 56.7576 47.0712 59.9056 48.8176Z" fill="url(#paint0_angular_2922_11418)"/>
<defs>
<radialGradient id="paint0_angular_2922_11418" cx="0" cy="0" r="1" gradientUnits="userSpaceOnUse" gradientTransform="translate(35.0001 35.0002) rotate(29.0212) scale(35)">
<stop stop-color="#232C41"/>
<stop offset="1" stop-color="#A9CBEC"/>
</radialGradient>
</defs>
</svg>
