<svg width="24" height="22" viewBox="0 0 24 22" fill="none" xmlns="http://www.w3.org/2000/svg">
<path d="M11.5933 19.7937C11.5933 20.8945 10.7009 21.7868 9.60013 21.7868C8.49934 21.7868 7.607 20.8945 7.607 19.7937C7.607 18.6929 8.49935 17.8005 9.60014 17.8005C10.7009 17.8005 11.5933 18.6929 11.5933 19.7937ZM17.6705 17.8005C16.5697 17.8005 15.6774 18.6929 15.6774 19.7937C15.6774 20.8945 16.5697 21.7868 17.6705 21.7868C18.7713 21.7868 19.6636 20.8945 19.6636 19.7937C19.6636 18.6929 18.7713 17.8005 17.6705 17.8005ZM23.8574 8.44389L21.4049 15.7333C21.4049 15.7333 21.2018 16.8151 20.1675 16.8151C19.1331 16.8151 9.01774 16.8151 7.78333 16.8151C6.54893 16.8151 6.49705 15.4592 6.49705 15.4592C6.49705 15.4592 5.18115 5.69648 5.11594 5.10669C5.05073 4.51689 4.29646 4.07974 4.29646 4.07974L1.05112 2.56377C-0.725667 1.63463 0.0819592 -0.133268 1.05112 0.272773C5.16632 2.21404 7.07796 3.16986 7.20096 3.93451C7.32544 4.70065 7.54179 6.5456 7.54179 6.5456V6.55745C7.56698 6.55005 7.58476 6.5456 7.58476 6.5456C7.58476 6.5456 20.2045 6.5456 22.7534 6.5456C24.585 6.5456 23.8574 8.44687 23.8574 8.44389ZM20.3097 12.5028L20.2845 12.5043H8.27829L8.52576 14.4663H19.7259L20.3097 12.5028ZM21.4789 8.54615H7.78185L8.04563 10.643C10.673 10.643 18.367 10.643 20.8595 10.643L21.4789 8.54615Z" fill="#232B42"/>
</svg>
