<svg width="48" height="48" viewBox="0 0 48 48" fill="none" xmlns="http://www.w3.org/2000/svg">
<path d="M1 24C1 11.2975 11.2975 1 24 1C36.7025 1 47 11.2975 47 24C47 36.7025 36.7025 47 24 47C11.2975 47 1 36.7025 1 24Z" stroke="white" stroke-width="2"/>
<path fill-rule="evenodd" clip-rule="evenodd" d="M17.7036 20.7431C17.0502 21.6835 16.7235 22.816 16.7235 24.1426H16.7196C16.7196 25.8136 17.1948 27.1065 18.1451 28.0173C19.0955 28.9281 20.3112 29.3834 21.7882 29.3834C22.7484 29.3834 23.5562 29.2884 24.2096 29.0944C25.2451 28.8053 26.3004 28.0767 27.3775 26.9046C27.4547 27.0016 27.5893 27.1877 27.7834 27.4689C27.9735 27.748 28.1121 27.9322 28.1992 28.0312C28.2843 28.1262 28.4288 28.2806 28.6308 28.4905C28.8327 28.7024 29.0664 28.9241 29.3356 29.1538C29.6623 29.2884 29.9415 29.2686 30.1712 29.0944C30.3058 28.9795 31.1691 28.2331 32.7649 26.8472C32.9193 26.7323 32.9945 26.5977 32.9945 26.4452C32.9945 26.3106 32.9371 26.1562 32.8223 25.9839L32.161 25.1048C32.0264 24.9227 31.8838 24.6257 31.7452 24.2099C31.5987 23.8001 31.5274 23.3447 31.5274 22.8438V15.8744C31.5274 15.7992 31.5195 15.5537 31.4997 15.1419C31.4799 14.73 31.4522 14.4588 31.4126 14.3341C31.3769 14.2093 31.3175 13.9836 31.2383 13.6609C31.1631 13.3322 31.08 13.0827 30.981 12.9085C30.8879 12.7343 30.7552 12.5402 30.5909 12.3185C30.4266 12.0987 30.2504 11.8908 30.0603 11.6988C28.8288 10.5663 27.1201 10 24.9323 10H24.2136C22.5069 10.095 21.012 10.5564 19.735 11.382C18.4599 12.2076 17.6581 13.4748 17.3314 15.1834C17.3116 15.2607 17.3017 15.326 17.3017 15.3854C17.3017 15.6547 17.466 15.8269 17.7907 15.9061L21.1031 16.31C21.41 16.2526 21.6021 16.0308 21.6813 15.6467C21.8139 15.033 22.1109 14.5518 22.5722 14.2054C23.0335 13.8569 23.582 13.6589 24.2156 13.5995H24.4393C25.3045 13.5995 25.9381 13.8886 26.34 14.4667C26.6073 14.8864 26.7459 15.7141 26.7459 16.9416V17.4307C25.5738 17.5257 24.7264 17.6009 24.2116 17.6603C22.695 17.8524 21.4179 18.1692 20.3824 18.6107C19.2479 19.0918 18.357 19.8026 17.7036 20.7431ZM22.2376 25.3662C21.8634 24.9108 21.6773 24.3129 21.6773 23.5645L21.6753 23.5665C21.6753 21.9152 22.5188 20.85 24.2096 20.3709C24.7838 20.2184 25.6292 20.1392 26.7439 20.1392V20.8579C26.7439 21.4717 26.74 21.9152 26.7301 22.1845C26.7202 22.4538 26.6627 22.8042 26.5578 23.2339C26.4509 23.6655 26.2925 24.0634 26.0826 24.4297C25.6411 25.2554 25.0155 25.7721 24.2116 25.984C24.172 25.984 24.0987 25.9939 23.9938 26.0137C23.8869 26.0315 23.8077 26.0394 23.7483 26.0394C23.1147 26.0394 22.6138 25.8157 22.2376 25.3662Z" fill="white"/>
<path d="M33.7707 32.8383C33.8103 32.7591 33.8697 32.6839 33.9429 32.6067C34.424 32.282 34.8854 32.0602 35.3289 31.9454C36.0555 31.7553 36.7663 31.6484 37.4573 31.6286C37.6493 31.6088 37.8335 31.6207 38.0037 31.6583C38.869 31.7375 39.3897 31.8801 39.56 32.0939C39.6392 32.2067 39.6748 32.379 39.6748 32.6087V32.8106C39.6748 33.4838 39.4926 34.2758 39.1283 35.1865C38.7621 36.0973 38.2532 36.8338 37.6038 37.3902C37.5048 37.4694 37.4197 37.505 37.3424 37.505C37.3028 37.505 37.2632 37.4951 37.2276 37.4773C37.1088 37.4179 37.0831 37.313 37.1405 37.1605C37.8533 35.4895 38.2057 34.3292 38.2057 33.6759C38.2057 33.464 38.1661 33.3096 38.0909 33.2145C37.8988 32.9868 37.3622 32.87 36.4772 32.87C36.1525 32.87 35.7684 32.8898 35.3289 32.9294C34.8458 32.9888 34.4042 33.0443 34.0023 33.1017C33.8835 33.1017 33.8103 33.0819 33.7707 33.0423C33.7311 33.0027 33.7231 32.967 33.7429 32.9274C33.7429 32.9076 33.7509 32.8799 33.7707 32.8423V32.8383Z" fill="#FF9900"/>
<path d="M8.0594 32.3493C8.15443 32.1949 8.30689 32.185 8.51874 32.3196C13.3181 35.1034 18.5411 36.4973 24.1859 36.4973C27.9477 36.4973 31.664 35.7944 35.3328 34.3926L35.7486 34.2204C35.9308 34.1412 36.0595 34.0857 36.1367 34.0481C36.4258 33.9333 36.6515 33.9887 36.8158 34.2204C36.9782 34.45 36.9247 34.6619 36.6574 34.8539C36.3109 35.1034 35.8694 35.3925 35.3309 35.7172C33.6816 36.6973 31.8383 37.4556 29.8029 37.9941C27.7695 38.5287 25.7837 38.7999 23.8433 38.7999C20.8477 38.7999 18.0164 38.2753 15.3495 37.2299C12.6766 36.1845 10.2888 34.7094 8.17621 32.8087C8.0594 32.7156 8 32.6166 8 32.5216C8 32.4622 8.0198 32.4068 8.0594 32.3493V32.3493Z" fill="#FF9900"/>
</svg>
