<svg width="20" height="20" viewBox="0 0 20 20" fill="none" xmlns="http://www.w3.org/2000/svg">
<g id="compass-svgrepo-com 1">
<path id="Vector" fill-rule="evenodd" clip-rule="evenodd" d="M10 0C9.69318 0 9.44445 0.248729 9.44445 0.555552V2.26831C7.86794 2.5328 6.66667 3.9039 6.66667 5.55555C6.66667 5.92607 6.72711 6.28247 6.8387 6.61543L1.48809 15.8829C0.66625 17.3065 1.15397 19.1267 2.57746 19.9485C2.74828 20.0471 2.96671 19.9885 3.06532 19.8178L6.16761 14.4445H9.44445V15.5555C9.44445 15.8624 9.69318 16.1111 10 16.1111C10.3068 16.1111 10.5555 15.8624 10.5555 15.5555V14.4445H13.8302L16.9325 19.8178C17.0311 19.9885 17.2496 20.0471 17.4204 19.9485C18.8439 19.1267 19.3317 17.3065 18.5098 15.8829L13.1605 6.61777C13.2726 6.28415 13.3333 5.92695 13.3333 5.55555C13.3333 3.9039 12.1321 2.5328 10.5555 2.26831V0.555552C10.5555 0.248729 10.3068 0 10 0ZM13.1888 13.3333L10.5924 8.8364C10.3969 8.87141 10.1986 8.88897 10 8.88888C9.8007 8.88897 9.60179 8.87129 9.40562 8.83605L6.80911 13.3333H9.44445V12.2222C9.44445 11.9154 9.69318 11.6667 10 11.6667C10.3068 11.6667 10.5555 11.9154 10.5555 12.2222V13.3333H13.1888ZM10 7.44445C11.0432 7.44445 11.8889 6.59876 11.8889 5.55555C11.8889 4.51235 11.0432 3.66667 10 3.66667C8.95679 3.66667 8.11111 4.51235 8.11111 5.55555C8.11111 6.59876 8.95679 7.44445 10 7.44445Z" fill="#003F50"/>
</g>
</svg>
