<svg width="11" height="11" viewBox="0 0 11 11" fill="none" xmlns="http://www.w3.org/2000/svg">
<path d="M2.70711 1.29289C2.31658 0.902369 1.68342 0.902369 1.29289 1.29289C0.902369 1.68342 0.902369 2.31658 1.29289 2.70711L2.70711 1.29289ZM10 11C10.5523 11 11 10.5523 11 10L11 1C11 0.447715 10.5523 -1.0013e-07 10 -1.0013e-07C9.44771 -1.0013e-07 9 0.447715 9 1L9 9L1 9C0.447715 9 -1.0013e-07 9.44771 -1.0013e-07 10C-1.0013e-07 10.5523 0.447715 11 1 11L10 11ZM1.29289 2.70711L9.29289 10.7071L10.7071 9.29289L2.70711 1.29289L1.29289 2.70711Z" fill="white"/>
</svg>
