<svg width="38" height="37" viewBox="0 0 38 37" fill="none" xmlns="http://www.w3.org/2000/svg">
<g id="bathroom-svgrepo-com 1">
<path id="Vector" d="M34.4375 20.7814H5.9375V7.42202C5.93612 6.91891 6.03455 6.42053 6.22709 5.95572C6.41962 5.49092 6.70244 5.06891 7.05917 4.71415L7.08886 4.68446C7.64792 4.12622 8.36569 3.75419 9.14413 3.6192C9.92257 3.48421 10.7237 3.59284 11.4381 3.93025C10.7634 5.05198 10.483 6.36702 10.6414 7.6664C10.7997 8.96578 11.3878 10.175 12.3122 11.1018L13.125 11.9146L11.629 13.4107L13.3082 15.0899L14.8043 13.5939L23.0937 5.30463L24.5897 3.8086L22.9104 2.12926L21.4143 3.62528L20.6015 2.81251C19.6284 1.84213 18.3456 1.24394 16.9768 1.12221C15.6079 1.00047 14.2397 1.36289 13.1107 2.14633C11.9201 1.39443 10.5091 1.06982 9.10965 1.22585C7.71016 1.38187 6.40536 2.00924 5.40958 3.00489L5.37989 3.03458C4.80191 3.6094 4.34368 4.29315 4.03172 5.04625C3.71977 5.79936 3.56028 6.60686 3.5625 7.42202V20.7814H1.1875V23.1564H3.5625V25.4349C3.56245 25.6264 3.59333 25.8166 3.65394 25.9982L5.86328 32.6259C5.98118 32.9807 6.2079 33.2894 6.51121 33.508C6.81453 33.7267 7.17903 33.8442 7.55295 33.8439H8.51037L7.64453 36.8126H10.1185L10.9844 33.8439H26.4293L27.3199 36.8126H29.7988L28.9082 33.8439H30.4468C30.8207 33.8443 31.1853 33.7268 31.4887 33.5081C31.792 33.2895 32.0188 32.9808 32.1367 32.6259L34.3459 25.9982C34.4065 25.8166 34.4375 25.6264 34.4375 25.4349V23.1564H36.8125V20.7814H34.4375ZM17.4677 7.96787C20.2258 6.12916 18.995 5.51626 19.9194 5.51626C20.8437 5.51626 18.2678 3.83897 18.9221 4.49186L19.7348 5.30463L14.8045 10.2349L13.9917 9.42229C13.3389 8.76796 15.3226 11.6503 15.3226 10.7259C15.3226 9.80162 16.8149 8.6222 17.4677 7.96787ZM32.0625 25.3384L30.0191 31.4689H7.98089L5.9375 25.3384L7.55295 31.8711L19.7348 31.4689H30.4468L32.0625 25.3384Z" fill="#232B42"/>
</g>
</svg>
