<svg width="38" height="38" viewBox="0 0 38 38" fill="none" xmlns="http://www.w3.org/2000/svg">
<g id="bed-svgrepo-com 1" clip-path="url(#clip0_2933_13506)">
<path id="Vector" d="M3.80002 7.6001C2.54424 7.6001 1.52002 8.62432 1.52002 9.8801V20.3776C2.50565 19.5226 3.75252 18.8309 5.32002 18.2876V15.2001C5.32002 13.1784 8.77268 12.9201 11.78 12.9201C14.7874 12.9201 18.24 13.1784 18.24 15.2001V16.7201C18.4953 16.7171 18.7388 16.7201 19 16.7201C19.2613 16.7201 19.5047 16.7171 19.76 16.7201V15.2001C19.76 13.1784 23.2127 12.9201 26.22 12.9201C29.2274 12.9201 32.68 13.1784 32.68 15.2001V18.2638C34.2446 18.8042 35.4855 19.5107 36.48 20.3776V9.8801C36.48 8.62432 35.4558 7.6001 34.2 7.6001H3.80002ZM19 18.2401C4.48877 18.2401 -0.0118516 20.9238 2.3425e-05 28.1201H38C38.0119 20.8763 33.5113 18.2401 19 18.2401ZM2.3425e-05 29.6401V38.0001H5.32002V34.9601C5.32002 33.8676 5.74752 33.4401 6.84002 33.4401H31.16C32.2525 33.4401 32.68 33.8676 32.68 34.9601V38.0001H38V29.6401H2.3425e-05Z" fill="#232B42"/>
</g>
<defs>
<clipPath id="clip0_2933_13506">
<rect width="38" height="38" fill="white"/>
</clipPath>
</defs>
</svg>
