<svg width="26" height="25" viewBox="0 0 26 25" fill="none" xmlns="http://www.w3.org/2000/svg">
<g id="building-fill">
<path id="Union" fill-rule="evenodd" clip-rule="evenodd" d="M7.7902 7.2999C7.79048 6.6026 7.79065 5.9053 7.79065 5.20801C8.83337 5.21779 21.3323 5.20801 22.374 5.20801V20.8238C22.374 21.3985 21.9073 21.8649 21.3323 21.8649L17.1656 21.8649L17.1663 18.7519C17.1665 17.6019 16.2337 16.6694 15.0829 16.6694C13.9325 16.6694 12.9999 17.6013 12.9996 18.7511L12.999 21.8649L7.79171 21.8746L4.66671 21.8747C4.09141 21.8747 3.62504 21.4086 3.62504 20.8336L3.62504 9.38201C3.04974 9.38201 2.58337 8.91592 2.58337 8.34096C2.58337 7.766 3.04974 7.2999 3.62504 7.2999H7.7902ZM7.78913 9.38201H5.70837L5.70837 19.7926H7.78822C7.78402 16.3224 7.78705 12.8522 7.78913 9.38201ZM13 10.4229C13.5753 10.4229 14.0417 9.95685 14.0417 9.38189C14.0417 8.80693 13.5753 8.34083 13 8.34083C12.4247 8.34083 11.9584 8.80693 11.9584 9.38189C11.9584 9.95685 12.4247 10.4229 13 10.4229ZM18.2084 9.38189C18.2084 9.95685 17.742 10.4229 17.1667 10.4229C16.5914 10.4229 16.125 9.95685 16.125 9.38189C16.125 8.80693 16.5914 8.34083 17.1667 8.34083C17.742 8.34083 18.2084 8.80693 18.2084 9.38189ZM13 14.5872C13.5753 14.5872 14.0417 14.1211 14.0417 13.5461C14.0417 12.9711 13.5753 12.5051 13 12.5051C12.4247 12.5051 11.9584 12.9711 11.9584 13.5461C11.9584 14.1211 12.4247 14.5872 13 14.5872ZM18.2084 13.5461C18.2084 14.1211 17.742 14.5872 17.1667 14.5872C16.5914 14.5872 16.125 14.1211 16.125 13.5461C16.125 12.9711 16.5914 12.5051 17.1667 12.5051C17.742 12.5051 18.2084 12.9711 18.2084 13.5461Z" fill="white"/>
<path id="Union_2" fill-rule="evenodd" clip-rule="evenodd" d="M7.79167 3.125C7.21637 3.125 6.75 3.59137 6.75 4.16667C6.75 4.74196 7.21637 5.20833 7.79167 5.20833L22.375 5.20833C22.9503 5.20833 23.4167 4.74196 23.4167 4.16667C23.4167 3.59137 22.9503 3.125 22.375 3.125L7.79167 3.125ZM13 10.4167C13.5753 10.4167 14.0417 9.9503 14.0417 9.375C14.0417 8.7997 13.5753 8.33333 13 8.33333C12.4247 8.33333 11.9583 8.7997 11.9583 9.375C11.9583 9.9503 12.4247 10.4167 13 10.4167ZM15.0833 16.6667C13.9327 16.6667 13 17.5994 13 18.75V21.875H17.1667V18.75C17.1667 17.5994 16.2339 16.6667 15.0833 16.6667ZM14.0417 13.5417C14.0417 14.117 13.5753 14.5833 13 14.5833C12.4247 14.5833 11.9583 14.117 11.9583 13.5417C11.9583 12.9664 12.4247 12.5 13 12.5C13.5753 12.5 14.0417 12.9664 14.0417 13.5417ZM17.1667 14.5833C17.742 14.5833 18.2083 14.117 18.2083 13.5417C18.2083 12.9664 17.742 12.5 17.1667 12.5C16.5914 12.5 16.125 12.9664 16.125 13.5417C16.125 14.117 16.5914 14.5833 17.1667 14.5833ZM18.2083 9.375C18.2083 9.9503 17.742 10.4167 17.1667 10.4167C16.5914 10.4167 16.125 9.9503 16.125 9.375C16.125 8.7997 16.5914 8.33333 17.1667 8.33333C17.742 8.33333 18.2083 8.7997 18.2083 9.375Z" fill="#669BBC"/>
</g>
</svg>
