<svg width="25" height="25" viewBox="0 0 25 25" fill="none" xmlns="http://www.w3.org/2000/svg">
<g id="building-fill">
<path id="Union" fill-rule="evenodd" clip-rule="evenodd" d="M7.29008 7.2999C7.29035 6.6026 7.29053 5.9053 7.29053 5.20801C8.33325 5.21779 20.8322 5.20801 21.8739 5.20801V20.8238C21.8739 21.3985 21.4072 21.8649 20.8322 21.8649L16.6655 21.8649L16.6662 18.7519C16.6664 17.6019 15.7336 16.6694 14.5828 16.6694C13.4324 16.6694 12.4997 17.6013 12.4995 18.7511L12.4989 21.8649L7.29159 21.8746L4.16659 21.8747C3.59129 21.8747 3.12492 21.4086 3.12492 20.8336L3.12492 9.38201C2.54962 9.38201 2.08325 8.91592 2.08325 8.34096C2.08325 7.766 2.54962 7.2999 3.12492 7.2999H7.29008ZM7.28901 9.38201H5.20825L5.20825 19.7926H7.28809C7.2839 16.3224 7.28693 12.8522 7.28901 9.38201ZM12.4999 10.4229C13.0752 10.4229 13.5416 9.95685 13.5416 9.38189C13.5416 8.80693 13.0752 8.34083 12.4999 8.34083C11.9246 8.34083 11.4583 8.80693 11.4583 9.38189C11.4583 9.95685 11.9246 10.4229 12.4999 10.4229ZM17.7083 9.38189C17.7083 9.95685 17.2419 10.4229 16.6666 10.4229C16.0913 10.4229 15.6249 9.95685 15.6249 9.38189C15.6249 8.80693 16.0913 8.34083 16.6666 8.34083C17.2419 8.34083 17.7083 8.80693 17.7083 9.38189ZM12.4999 14.5872C13.0752 14.5872 13.5416 14.1211 13.5416 13.5461C13.5416 12.9711 13.0752 12.5051 12.4999 12.5051C11.9246 12.5051 11.4583 12.9711 11.4583 13.5461C11.4583 14.1211 11.9246 14.5872 12.4999 14.5872ZM17.7083 13.5461C17.7083 14.1211 17.2419 14.5872 16.6666 14.5872C16.0913 14.5872 15.6249 14.1211 15.6249 13.5461C15.6249 12.9711 16.0913 12.5051 16.6666 12.5051C17.2419 12.5051 17.7083 12.9711 17.7083 13.5461Z" fill="#526EA0"/>
<path id="Union_2" fill-rule="evenodd" clip-rule="evenodd" d="M7.29167 3.125C6.71637 3.125 6.25 3.59137 6.25 4.16667C6.25 4.74196 6.71637 5.20833 7.29167 5.20833L21.875 5.20833C22.4503 5.20833 22.9167 4.74196 22.9167 4.16667C22.9167 3.59137 22.4503 3.125 21.875 3.125L7.29167 3.125ZM12.5 10.4167C13.0753 10.4167 13.5417 9.9503 13.5417 9.375C13.5417 8.7997 13.0753 8.33333 12.5 8.33333C11.9247 8.33333 11.4583 8.7997 11.4583 9.375C11.4583 9.9503 11.9247 10.4167 12.5 10.4167ZM14.5833 16.6667C13.4327 16.6667 12.5 17.5994 12.5 18.75V21.875H16.6667V18.75C16.6667 17.5994 15.7339 16.6667 14.5833 16.6667ZM13.5417 13.5417C13.5417 14.117 13.0753 14.5833 12.5 14.5833C11.9247 14.5833 11.4583 14.117 11.4583 13.5417C11.4583 12.9664 11.9247 12.5 12.5 12.5C13.0753 12.5 13.5417 12.9664 13.5417 13.5417ZM16.6667 14.5833C17.242 14.5833 17.7083 14.117 17.7083 13.5417C17.7083 12.9664 17.242 12.5 16.6667 12.5C16.0914 12.5 15.625 12.9664 15.625 13.5417C15.625 14.117 16.0914 14.5833 16.6667 14.5833ZM17.7083 9.375C17.7083 9.9503 17.242 10.4167 16.6667 10.4167C16.0914 10.4167 15.625 9.9503 15.625 9.375C15.625 8.7997 16.0914 8.33333 16.6667 8.33333C17.242 8.33333 17.7083 8.7997 17.7083 9.375Z" fill="#F6F8FE"/>
</g>
</svg>
