<svg width="14" height="16" viewBox="0 0 14 16" fill="none" xmlns="http://www.w3.org/2000/svg">
<g id="Group 1000004364">
<g id="Group 1000004363">
<mask id="mask0_5368_6791" style="mask-type:luminance" maskUnits="userSpaceOnUse" x="1" y="1" width="13" height="15">
<path id="Clip 2" fill-rule="evenodd" clip-rule="evenodd" d="M13.1539 1.91992H10.5939V10.2399L9.31394 12.1599H3.87395H1.63396V15.3599H13.4739L13.1539 1.91992Z" fill="white"/>
</mask>
<g mask="url(#mask0_5368_6791)">
<path id="Fill 1" fill-rule="evenodd" clip-rule="evenodd" d="M9.94111 2.88017C11.0016 2.88017 11.8822 3.73905 11.9072 4.79824V11.643C11.9309 12.7394 11.0669 13.6424 9.98143 13.6667H4.82048C3.75232 13.6226 2.90624 12.7349 2.91392 11.6469V5.97008L5.88032 2.88017H9.93343H9.94111ZM9.93352 14.6265H10.0033C11.6174 14.59 12.9025 13.2473 12.8673 11.6325V4.78648C12.8302 3.19864 11.5188 1.91992 9.94248 1.91992H9.9316H5.67561C5.54505 1.91992 5.42025 1.97304 5.32937 2.06712L2.08777 5.4444C2.00201 5.53336 1.95401 5.65304 1.95401 5.77656V11.6428C1.94249 13.2485 3.19305 14.5605 4.80137 14.6258L9.93352 14.6265Z" fill="#5681AA"/>
</g>
</g>
<g id="Paper">
<g id="Group 3">
<mask id="mask1_5368_6791" style="mask-type:luminance" maskUnits="userSpaceOnUse" x="0" y="0" width="11" height="13">
<path id="Clip 2_2" fill-rule="evenodd" clip-rule="evenodd" d="M10.9137 0.00732422H1.23978e-05V12.7135H10.9137V0.00732422Z" fill="white"/>
</mask>
<g mask="url(#mask1_5368_6791)">
<path id="Fill 1_2" fill-rule="evenodd" clip-rule="evenodd" d="M7.98703 0.967223C9.04751 0.967223 9.92815 1.8261 9.95311 2.8853V9.73009C9.97679 10.8264 9.11279 11.7294 8.02735 11.7538H2.8664C1.79824 11.7096 0.952163 10.8219 0.959843 9.73393V4.05714L3.92624 0.967223H7.97935H7.98703ZM7.97926 12.7139H8.04903C9.6631 12.6774 10.9482 11.3347 10.913 9.71995V2.87388C10.8759 1.28604 9.56454 0.00732422 7.98822 0.00732422H7.97735H3.72135C3.59079 0.00732422 3.46599 0.0604441 3.37511 0.154524L0.133517 3.5318C0.0477571 3.62076 -0.000242233 3.74044 -0.000242233 3.86396V9.73019C-0.0117626 11.3359 1.2388 12.6479 2.84711 12.7132L7.97926 12.7139Z" fill="#5681AA"/>
</g>
</g>
<path id="Fill 4" fill-rule="evenodd" clip-rule="evenodd" d="M0.482976 4.46975H2.24617C3.41737 4.46655 4.36969 3.51167 4.36969 2.34176V0.479999C4.36969 0.21504 4.15465 0 3.88969 0C3.62473 0 3.40969 0.21504 3.40969 0.479999V2.34176C3.40969 2.98432 2.88681 3.50783 2.24489 3.50975H0.482976C0.218016 3.50975 0.00297642 3.72479 0.00297642 3.98975C0.00297642 4.25471 0.218016 4.46975 0.482976 4.46975Z" fill="#5681AA"/>
</g>
</g>
</svg>
