<svg width="20" height="20" viewBox="0 0 20 20" fill="none" xmlns="http://www.w3.org/2000/svg">
<g id="Close Square">
<path id="Union" opacity="0.4" fill-rule="evenodd" clip-rule="evenodd" d="M8.13146 7.0625C7.8386 6.76957 7.36372 6.76953 7.0708 7.06239C6.77788 7.35525 6.77783 7.83012 7.07069 8.12305L8.93851 9.99126L7.07325 11.8565C6.78035 12.1494 6.78035 12.6243 7.07325 12.9172C7.36614 13.2101 7.84101 13.2101 8.13391 12.9172L9.99906 11.052L11.8667 12.92C12.1596 13.213 12.6344 13.213 12.9273 12.9202C13.2203 12.6273 13.2203 12.1524 12.9275 11.8595L11.0597 9.99137L12.9259 8.12518C13.2188 7.83229 13.2188 7.35741 12.9259 7.06452C12.633 6.77163 12.1581 6.77163 11.8652 7.06452L9.99917 8.9306L8.13146 7.0625Z" fill="#212121"/>
<path id="Stroke 3" fill-rule="evenodd" clip-rule="evenodd" d="M14.3345 0.75H5.66549C2.64449 0.75 0.750488 2.889 0.750488 5.916V14.084C0.750488 17.111 2.63549 19.25 5.66549 19.25H14.3335C17.3645 19.25 19.2505 17.111 19.2505 14.084V5.916C19.2505 2.889 17.3645 0.75 14.3345 0.75Z" stroke="#212121" stroke-width="1.5" stroke-linecap="round" stroke-linejoin="round"/>
</g>
</svg>
