<svg width="17" height="18" viewBox="0 0 17 18" fill="none" xmlns="http://www.w3.org/2000/svg">
<g id="Delete">
<path id="Fill 1" fill-rule="evenodd" clip-rule="evenodd" d="M8.43496 17.642C7.27972 17.642 6.15347 17.6293 5.03916 17.6064C3.61365 17.5784 2.62722 16.6599 2.46609 15.2092C2.19752 12.8027 1.73799 7.13047 1.73372 7.0737C1.70474 6.72374 1.96733 6.41699 2.31944 6.38903C2.66644 6.37971 2.98019 6.62205 3.00832 6.97117C3.01259 7.02879 3.47127 12.6815 3.73727 15.0694C3.8285 15.8939 4.2761 16.3192 5.06558 16.3353C7.19702 16.3803 9.37194 16.3828 11.7165 16.3404C12.5555 16.3243 13.009 15.9074 13.1028 15.0635C13.3671 12.6959 13.8275 7.02879 13.8326 6.97117C13.8607 6.62205 14.1719 6.37801 14.5206 6.38903C14.8727 6.41784 15.1353 6.72374 15.1072 7.0737C15.1021 7.13132 14.64 12.8179 14.374 15.2033C14.2086 16.6836 13.2247 17.5843 11.7395 17.6115C10.6031 17.631 9.50665 17.642 8.43496 17.642Z" fill="#5681AA"/>
<path id="Fill 3" fill-rule="evenodd" clip-rule="evenodd" d="M15.6489 4.92241H1.19098C0.838009 4.92241 0.551544 4.63769 0.551544 4.28689C0.551544 3.93608 0.838009 3.65137 1.19098 3.65137H15.6489C16.0019 3.65137 16.2884 3.93608 16.2884 4.28689C16.2884 4.63769 16.0019 4.92241 15.6489 4.92241Z" fill="#5681AA"/>
<path id="Fill 5" fill-rule="evenodd" clip-rule="evenodd" d="M12.8631 4.9223C11.8928 4.9223 11.0505 4.23509 10.8595 3.28944L10.6523 2.25905C10.6089 2.10229 10.429 1.96586 10.2243 1.96586H6.6154C6.41078 1.96586 6.23089 2.10229 6.17888 2.29803L5.98023 3.28944C5.79011 4.23509 4.94691 4.9223 3.97668 4.9223C3.62371 4.9223 3.33725 4.63759 3.33725 4.28678C3.33725 3.93598 3.62371 3.65126 3.97668 3.65126C4.33988 3.65126 4.65533 3.39367 4.72695 3.03947L4.93412 2.00908C5.14471 1.21934 5.83274 0.694824 6.6154 0.694824H10.2243C11.007 0.694824 11.695 1.21934 11.8971 1.97095L12.1137 3.03947C12.1844 3.39367 12.4999 3.65126 12.8631 3.65126C13.216 3.65126 13.5025 3.93598 13.5025 4.28678C13.5025 4.63759 13.216 4.9223 12.8631 4.9223Z" fill="#5681AA"/>
</g>
</svg>
