<svg width="23" height="22" viewBox="0 0 23 22" fill="none" xmlns="http://www.w3.org/2000/svg">
<path id="Vector" d="M18.5508 15.1166L17.5471 22.0059H5.09364L4.0899 15.1166H18.5508ZM11.3203 19.1561C11.8368 19.1561 12.2554 18.8809 12.2554 18.5416C12.2554 18.2023 11.8368 17.9271 11.3203 17.9271C10.8039 17.9271 10.3853 18.2022 10.3853 18.5416C10.3853 18.881 10.8039 19.1561 11.3203 19.1561ZM1.85845 20.7558H4.19691L3.27224 14.4093H19.3685L18.4438 20.7558H20.7822C22.1162 20.7558 23.0149 19.3906 22.4873 18.1652L19.1802 10.4846C18.5379 8.99273 17.0695 8.02628 15.4453 8.02628H14.1439L12.0878 11.0865L11.6687 9.08707L12.3703 8.02628H10.2597L10.9614 9.08707L10.5432 11.0724L8.49656 8.02628H7.19508C5.57089 8.02628 4.10248 8.99273 3.46019 10.4846L0.153219 18.1652C-0.374163 19.3905 0.524364 20.7558 1.85845 20.7558ZM11.3203 0C9.29922 0 7.66074 1.63848 7.66074 3.65961C7.66074 5.68073 9.29922 7.31912 11.3203 7.31912C13.3415 7.31912 14.98 5.68064 14.98 3.65952C14.98 1.63839 13.3415 0 11.3203 0Z" fill="#003F50"/>
</svg>
