<svg width="18" height="19" viewBox="0 0 18 19" fill="none" xmlns="http://www.w3.org/2000/svg">
<g id="Edit Square">
<g id="Icon - Edit">
<g id="Edit-Square">
<path id="Combined-Shape" fill-rule="evenodd" clip-rule="evenodd" d="M8.62975 2.23553C8.93162 2.23553 9.17662 2.48053 9.17662 2.7824C9.17662 3.08428 8.93162 3.32928 8.62975 3.32928H5.90339C4.01923 3.32928 2.80225 4.6199 2.80225 6.61709V12.6794C2.80225 14.6766 4.01923 15.9672 5.90339 15.9672H12.3376C14.2217 15.9672 15.4394 14.6766 15.4394 12.6794V9.7423C15.4394 9.44042 15.6844 9.19542 15.9863 9.19542C16.2882 9.19542 16.5332 9.44042 16.5332 9.7423V12.6794C16.5332 15.3 14.8466 17.0609 12.3376 17.0609H5.90339C3.39433 17.0609 1.7085 15.3 1.7085 12.6794V6.61709C1.7085 3.99646 3.39433 2.23553 5.90339 2.23553H8.62975ZM14.9805 2.87617L15.8679 3.76357C16.3003 4.19523 16.538 4.76909 16.5373 5.38013C16.5373 5.99117 16.2996 6.5643 15.8679 6.99523L10.3926 12.4705C9.99081 12.8723 9.4556 13.094 8.88685 13.094H6.15539C6.0081 13.094 5.86664 13.0342 5.76383 12.9285C5.66102 12.8235 5.60487 12.6813 5.60852 12.5333L5.67706 9.77773C5.69091 9.2294 5.91185 8.71388 6.29977 8.32523H6.3005L11.7496 2.87617C12.6406 1.98659 14.0895 1.98659 14.9805 2.87617ZM11.3007 4.87117L7.07341 9.09888C6.88456 9.28773 6.77737 9.53857 6.77081 9.80471L6.71612 12.0002H8.88685C9.16393 12.0002 9.42352 11.893 9.61966 11.6969L13.8725 7.44294L11.3007 4.87117ZM12.5225 3.64982L12.0736 4.09753L14.6454 6.67003L15.095 6.22159C15.3196 5.99701 15.4435 5.69805 15.4435 5.38013C15.4435 5.06148 15.3196 4.7618 15.095 4.53721L14.2076 3.64982C13.7431 3.1868 12.9877 3.1868 12.5225 3.64982Z" fill="#111111"/>
</g>
</g>
</g>
</svg>
