<svg width="89" height="88" viewBox="0 0 89 88" fill="none" xmlns="http://www.w3.org/2000/svg">
<g id="empty 1" clip-path="url(#clip0_3047_4154)">
<path id="Vector" d="M79.8433 16.1631H11.2443C10.3189 16.1637 9.43145 16.5316 8.77704 17.186C8.12262 17.8404 7.75472 18.7278 7.75415 19.6533V82.5935C7.75472 83.519 8.12262 84.4064 8.77704 85.0608C9.43145 85.7152 10.3189 86.0831 11.2443 86.0837H79.8433C80.7689 86.0832 81.6564 85.7153 82.3109 85.0609C82.9654 84.4065 83.3333 83.519 83.3339 82.5935V19.6533C83.3333 18.7277 82.9654 17.8403 82.3109 17.1858C81.6564 16.5314 80.7689 16.1636 79.8433 16.1631Z" fill="#C6C6C6"/>
<path id="Vector_2" d="M75.3276 64.2124H15.7612C13.8337 64.2124 12.271 62.6497 12.271 60.7222V5.11128C12.271 3.18382 13.8337 1.62109 15.7612 1.62109H75.3276C77.2551 1.62109 78.8178 3.18382 78.8178 5.11128V60.7222C78.8178 62.6497 77.2551 64.2124 75.3276 64.2124Z" fill="#F9F9F9"/>
<path id="Vector_3" d="M13.376 61.8269V6.2163C13.376 4.28883 14.9387 2.7261 16.8662 2.7261H76.4326C77.1134 2.7261 77.7463 2.92397 78.283 3.26095C77.666 2.27704 76.5746 1.62109 75.3276 1.62109H15.7612C13.8337 1.62109 12.271 3.18382 12.271 5.11129V60.7222C12.271 61.9696 12.9269 63.0606 13.9109 63.678C13.5739 63.1409 13.376 62.5081 13.376 61.8273V61.8269Z" fill="url(#paint0_linear_3047_4154)"/>
<path id="Vector_4" d="M67.9987 13.3711H23.0908V15.9304H67.9987V13.3711ZM67.9987 23.1432H23.0908V25.7025H67.9987V23.1432ZM67.9987 32.9175H23.0908V35.4767H67.9987V32.9175ZM67.9987 42.6896H23.0908V45.2492H67.9987V42.6896Z" fill="white"/>
<path id="Vector_5" d="M28.4421 34.4287L39.7269 45.7138H28.4421V34.4287Z" fill="url(#paint1_linear_3047_4154)"/>
<path id="Vector_6" d="M83.3344 46.6446V20.6797L78.8181 16.1631V46.6442H83.3344V46.6446Z" fill="#C6C6C6"/>
<path id="Vector_7" d="M88.6243 48.9931L83.7584 83.438C83.5152 85.16 82.0414 86.4399 80.3025 86.4399H10.7862C9.04728 86.4399 7.57357 85.16 7.3303 83.438L0.754652 36.8946C0.458036 34.7934 2.08852 32.916 4.2106 32.916H25.6787C27.4176 32.916 28.8913 34.1958 29.1346 35.9175L29.9964 42.0127C30.2396 43.7347 31.7133 45.0146 33.4523 45.0146H85.1691C87.2904 45.0146 88.9213 46.8919 88.6247 48.9931H88.6243Z" fill="url(#paint2_linear_3047_4154)"/>
<path id="Vector_8" d="M71.3838 71.0756H19.7053C19.422 71.0754 19.1485 70.9721 18.936 70.7848C18.7235 70.5975 18.5866 70.3391 18.5509 70.0581L17.9043 64.9389C17.8838 64.7751 17.8983 64.6089 17.9469 64.4511C17.9955 64.2934 18.0771 64.1478 18.1863 64.024C18.2954 63.9002 18.4297 63.8011 18.5801 63.7331C18.7305 63.6652 18.8937 63.63 19.0587 63.6299H72.0304C72.1954 63.63 72.3586 63.6652 72.509 63.7331C72.6594 63.8011 72.7936 63.9002 72.9028 64.024C73.012 64.1478 73.0936 64.2934 73.1422 64.4511C73.1908 64.6089 73.2053 64.7751 73.1848 64.9389L72.5382 70.0581C72.5025 70.3391 72.3656 70.5975 72.1531 70.7848C71.9406 70.9721 71.6671 71.0754 71.3838 71.0756Z" fill="#D5D5D5"/>
</g>
<defs>
<linearGradient id="paint0_linear_3047_4154" x1="47.591" y1="34.9596" x2="3.45181" y2="-9.17998" gradientUnits="userSpaceOnUse">
<stop stop-color="white"/>
</linearGradient>
<linearGradient id="paint1_linear_3047_4154" x1="35.8979" y1="47.5245" x2="22.2575" y2="33.8845" gradientUnits="userSpaceOnUse">
<stop stop-color="#C2CECE" stop-opacity="0"/>
<stop offset="0.179" stop-color="#AFBCBC" stop-opacity="0.179"/>
<stop offset="1" stop-color="#5B6A6A"/>
</linearGradient>
<linearGradient id="paint2_linear_3047_4154" x1="44.6895" y1="32.916" x2="44.6895" y2="86.4399" gradientUnits="userSpaceOnUse">
<stop stop-color="#EEF0F4"/>
<stop offset="0.927" stop-color="#E4E4E4"/>
</linearGradient>
<clipPath id="clip0_3047_4154">
<rect width="87.9396" height="87.9396" fill="white" transform="translate(0.719727 0.0605469)"/>
</clipPath>
</defs>
</svg>
