<svg width="173" height="173" viewBox="0 0 173 173" fill="none" xmlns="http://www.w3.org/2000/svg">
<path d="M172.28 148.022C176.453 139.765 164.528 98.4778 81.8421 98.4778C22.1598 98.4778 -5.23275 132.272 0.823196 149.398" fill="url(#paint0_radial_4680_48041)"/>
<mask id="mask0_4680_48041" style="mask-type:luminance" maskUnits="userSpaceOnUse" x="0" y="98" width="173" height="52">
<path d="M172.28 148.022C176.453 139.765 164.528 98.4778 81.8421 98.4778C22.1598 98.4778 -5.23275 132.272 0.823196 149.398" fill="white"/>
</mask>
<g mask="url(#mask0_4680_48041)">
<ellipse opacity="0.671968" cx="69.0888" cy="134.938" rx="4.54731" ry="2.52581" fill="url(#paint1_linear_4680_48041)"/>
<ellipse opacity="0.256348" cx="115.502" cy="117.775" rx="7.17465" ry="3.94026" fill="url(#paint2_linear_4680_48041)"/>
<ellipse opacity="0.729957" cx="33.8524" cy="107.268" rx="7.17465" ry="3.94026" fill="url(#paint3_linear_4680_48041)"/>
</g>
<path opacity="0.5" d="M67.4033 107.634C67.4033 107.634 84.9981 115.908 91.9782 119.083C97.507 121.598 125.976 129.643 129.368 127.356C132.759 125.069 140.248 118.793 137.775 114.493C135.303 110.192 122.302 102.471 116.084 101.343C109.866 100.215 92.0867 105.343 92.0867 105.343L76.9214 107.948L67.4033 107.634Z" fill="url(#paint4_linear_4680_48041)"/>
<path d="M80.4451 70.6424L60.8385 85.059L66.0663 72.7938L85.7017 60.3281L80.4451 70.6424Z" fill="#E2E7EC"/>
<path d="M65.7402 73.047L85.7018 60.5508V94.6315L67.4037 107.46L65.7402 73.047Z" fill="#D8DFE6"/>
<path d="M85.7017 60.5508L116.309 67.7115V101.805L85.7017 94.6439V60.5508Z" fill="#E9EFF1"/>
<path d="M65.7402 73.0453L97.0133 80.3538V114.447L67.4037 107.648L65.7402 73.0453Z" fill="#E8EAEB"/>
<path d="M96.3472 80.3664L116.309 67.8701V101.951L96.3472 114.447V80.3664Z" fill="#D8DFE6"/>
<mask id="mask1_4680_48041" style="mask-type:luminance" maskUnits="userSpaceOnUse" x="96" y="67" width="21" height="48">
<path d="M96.3472 80.3664L116.309 67.8701V101.951L96.3472 114.447V80.3664Z" fill="white"/>
</mask>
<g mask="url(#mask1_4680_48041)">
<rect x="103.762" y="65.0301" width="6.27363" height="52.257" fill="#C7D0D9"/>
</g>
<path d="M105.323 90.4932L124.959 78.0276L115.983 67.8701L96.3472 80.3358L105.323 90.4932Z" fill="#E2E7EC"/>
<path opacity="0.5" d="M50.428 108.493L81.3102 124.272L84.1935 115.911L53.8932 105.831L50.428 108.493Z" fill="url(#paint5_linear_4680_48041)"/>
<path d="M49.5847 82.5525L60.2335 83.392L57.8688 106.555C57.8688 106.555 57.6617 106.787 57.1593 106.697C56.6569 106.607 56.1298 106.327 56.1298 106.327L54.546 87.9133C54.546 87.9133 53.63 94.4245 53.694 96.2564C53.7422 97.6366 54.2141 99.3203 54.4667 100.76C54.684 102 55.1414 104.962 55.1414 104.962C55.1414 104.962 54.601 105.209 54.3136 105.265C54.0262 105.32 53.6577 105.014 53.6577 105.014C53.6577 105.014 49.9241 97.7662 49.876 96.3898C49.828 95.0133 49.5847 82.5525 49.5847 82.5525Z" fill="url(#paint6_linear_4680_48041)"/>
<path d="M53.4926 104.98C53.4926 104.98 53.0183 105.834 52.4291 106.355C51.8399 106.875 50.6772 107.497 50.4121 107.78C50.1471 108.062 50.4365 108.478 50.4365 108.478L53.2861 108.379L55.5631 106.453L55.2449 104.617L53.4926 104.98Z" fill="#677285"/>
<path d="M58.1366 105.969L58.8019 107.814C58.8019 107.814 57.7094 108.66 56.2 108.896C54.6906 109.131 53.6505 108.769 53.6505 108.769C53.6505 108.769 53.378 108.22 53.8916 107.986C54.1275 107.878 54.6563 107.43 55.1205 106.856C55.3301 106.597 56.1195 106.039 56.1195 106.039L58.1366 105.969Z" fill="#677285"/>
<path d="M62.907 70.4762C62.907 70.4762 63.7798 71.804 64.315 71.4487C64.8502 71.0934 68.1913 67.669 68.1913 67.669C68.1913 67.669 69.1851 66.9038 69.3689 67.0857C69.5528 67.2676 69.0375 67.669 69.0375 67.669C69.0375 67.669 70.122 67.7755 70.4609 67.7755C70.7997 67.7755 71.5125 68.3165 71.0464 68.4986C70.5804 68.6807 68.7724 68.7256 68.7724 68.7256C68.7724 68.7256 66.0276 73.9164 64.5973 74.2844C63.1669 74.6525 61.1963 72.5709 61.1963 72.5709L62.907 70.4762Z" fill="#FDE7E6"/>
<path d="M48.9615 70.5712C48.9615 70.5712 48.3892 71.7429 47.8706 71.4618C47.352 71.1807 44.4423 68.1121 44.4423 68.1121C44.4423 68.1121 43.4733 67.5187 43.2363 67.6254C42.9994 67.7322 43.5836 68.1121 43.5836 68.1121C43.5836 68.1121 42.1579 68.2278 41.8897 68.3356C41.6215 68.4434 41.3092 68.774 41.7147 68.9242C42.1202 69.0745 43.6724 69.1814 43.6724 69.1814C43.6724 69.1814 45.8302 73.4453 47.465 73.9439C49.0998 74.4425 50.4926 72.478 50.4926 72.478L48.9615 70.5712Z" fill="#FDE7E6"/>
<path d="M54.2545 66.9829V64.888C54.2545 64.888 53.1683 64.943 52.7268 64.2157C52.2853 63.4883 52.166 61.4243 52.166 61.4243L52.4987 60.4674L55.7703 60.3291L57.4891 61.7938L56.6888 63.2072L56.5363 63.4789L57.2991 66.6911L54.2545 66.9829Z" fill="#FDE7E6"/>
<mask id="mask2_4680_48041" style="mask-type:luminance" maskUnits="userSpaceOnUse" x="52" y="60" width="6" height="7">
<path d="M54.2545 66.9829V64.888C54.2545 64.888 53.1683 64.943 52.7268 64.2157C52.2853 63.4883 52.166 61.4243 52.166 61.4243L52.4987 60.4674L55.7703 60.3291L57.4891 61.7938L56.6888 63.2072L56.5363 63.4789L57.2991 66.6911L54.2545 66.9829Z" fill="white"/>
</mask>
<g mask="url(#mask2_4680_48041)">
<path d="M56.3827 62.8968C55.4158 64.0993 53.7435 64.9397 53.5258 64.9397C53.308 64.9397 54.7417 66.4478 54.7417 66.4478L55.9082 66.9826L57.5637 66.6316L58.1548 64.9397L57.1114 63.0201C57.1114 63.0201 57.3495 61.6943 56.3827 62.8968Z" fill="url(#paint7_linear_4680_48041)"/>
</g>
<path d="M48.2666 71.4126L49.8743 73.5782L50.8997 72.4954C50.8997 72.4954 50.1198 76.7713 49.8743 78.8219C49.6288 80.8726 49.5832 82.9151 49.5832 82.9151C49.5832 82.9151 52.1575 83.8709 54.0766 84.0317C55.9957 84.1925 60.4632 83.7785 60.4632 83.7785L59.8866 71.7424L61.5598 73.2959L63.5245 71.0273C63.5245 71.0273 60.1424 65.8298 59.5028 65.5271C58.8632 65.2243 57.0853 65.5271 57.0853 65.5271C57.0853 65.5271 55.8237 67.0201 55.3121 67.0409C54.8005 67.0618 53.6657 65.5271 53.6657 65.5271C53.6657 65.5271 51.8526 65.2375 51.3254 65.8298C50.7983 66.4222 48.2666 71.4126 48.2666 71.4126Z" fill="url(#paint8_linear_4680_48041)"/>
<path d="M52.1666 61.4474C52.1666 61.4474 52.5521 60.4744 53.0554 60.644C53.5317 60.8044 53.9442 61.1861 54.5368 61.3653C55.1294 61.5445 55.1948 60.7395 55.5975 60.8754C56.0002 61.0113 55.7344 62.1955 56.0182 62.4161C56.302 62.6366 56.302 60.8754 56.907 61.3496C57.5121 61.8237 56.2758 63.1582 56.2758 63.1582C56.2758 63.1582 56.4343 63.9784 56.4851 64.0342C56.5359 64.09 56.5301 63.4375 56.5301 63.4375C56.5301 63.4375 57.1079 63.2157 57.3542 62.2153C57.6004 61.2148 57.7069 60.8165 57.3542 60.0896C57.0015 59.3627 56.9009 58.7934 56.0182 58.4505C55.1354 58.1076 54.4657 58.2417 53.8487 58.4505C53.2317 58.6593 52.7846 59.0742 52.4993 59.487C51.8339 60.4669 52.1666 61.4474 52.1666 61.4474Z" fill="#4D364F"/>
<path fill-rule="evenodd" clip-rule="evenodd" d="M111.652 35.7878C110.951 36.0021 96.4355 44.6869 96.4355 44.6869L100.671 45.0027L103.681 48.3294C103.681 48.3294 112.353 35.5735 111.652 35.7878Z" fill="#E8EAEB"/>
<mask id="mask3_4680_48041" style="mask-type:luminance" maskUnits="userSpaceOnUse" x="96" y="35" width="16" height="14">
<path fill-rule="evenodd" clip-rule="evenodd" d="M111.652 35.7878C110.951 36.0021 96.4355 44.6869 96.4355 44.6869L100.671 45.0027L103.681 48.3294C103.681 48.3294 112.353 35.5735 111.652 35.7878Z" fill="white"/>
</mask>
<g mask="url(#mask3_4680_48041)">
<path fill-rule="evenodd" clip-rule="evenodd" d="M100.672 45.0032L111.652 35.7882L103.682 48.3299L100.672 45.0032Z" fill="#D8DFE6"/>
</g>
<path fill-rule="evenodd" clip-rule="evenodd" d="M109.472 45.8516L104.382 45.3196L111.658 35.8777L109.472 45.8516Z" fill="#E8EAEB"/>
<path fill-rule="evenodd" clip-rule="evenodd" d="M100.1 52.1423C100.418 51.4693 100.738 50.7727 101.061 50.0524L101.587 50.288C101.263 51.0118 100.941 51.712 100.621 52.3887L100.1 52.1423ZM98.0288 56.2482C98.3803 55.5998 98.7346 54.9206 99.0918 54.2107L99.6069 54.4699C99.2471 55.1849 98.8901 55.8693 98.5358 56.523L98.0288 56.2482ZM96.8985 58.2457C96.4887 58.9365 96.083 59.5839 95.6815 60.1878L96.1618 60.507C96.5689 59.8947 96.9797 59.239 97.3944 58.54L96.8985 58.2457ZM92.868 63.7801C93.3544 63.2756 93.848 62.6998 94.3488 62.0529L94.8048 62.4058C94.2917 63.0687 93.7846 63.6602 93.2832 64.1803L92.868 63.7801ZM91.1742 65.2703C90.5001 65.7533 89.8437 66.0874 89.2053 66.2742L89.3672 66.8276C90.0715 66.6216 90.7857 66.2581 91.5101 65.739L91.1742 65.2703ZM85.1387 65.3314C85.7728 65.8427 86.4176 66.1776 87.0737 66.3392L86.9358 66.8991C86.1938 66.7164 85.4739 66.3424 84.7767 65.7803L85.1387 65.3314ZM83.5845 63.6935C83.5488 63.6467 83.5131 63.5993 83.4775 63.5513C83.0133 62.9265 82.6761 62.3335 82.4611 61.7734L81.9227 61.9801C82.1576 62.592 82.5206 63.2303 83.0146 63.8953C83.0518 63.9453 83.089 63.9947 83.1263 64.0435L83.5845 63.6935ZM83.4464 57.8924C82.8235 58.4069 82.4228 58.9974 82.2594 59.6563L81.6997 59.5175C81.8947 58.7313 82.3657 58.037 83.0791 57.4478L83.4464 57.8924ZM85.3729 56.8089C86.0217 56.5555 86.7514 56.3488 87.5425 56.1929L87.431 55.6271C86.6076 55.7894 85.8452 56.0053 85.1631 56.2717L85.3729 56.8089ZM92.0571 55.8629C91.2899 55.8356 90.5253 55.8482 89.7808 55.9007L89.7403 55.3254C90.5053 55.2715 91.2902 55.2585 92.0776 55.2866L92.0571 55.8629ZM94.3525 56.0652C95.1255 56.1752 95.8733 56.326 96.5796 56.5149L96.7287 55.9579C95.9996 55.7628 95.2292 55.6075 94.4338 55.4943L94.3525 56.0652ZM100.636 58.4149C100.109 57.9858 99.4653 57.6006 98.7225 57.2658L98.9595 56.7401C99.7456 57.0944 100.432 57.5052 101 57.9677L100.636 58.4149ZM102.01 60.1472C102.149 60.4705 102.238 60.8072 102.276 61.1574C102.316 61.528 102.329 61.9004 102.317 62.2748L102.894 62.2936C102.907 61.8924 102.892 61.4932 102.849 61.096C102.806 60.688 102.702 60.2952 102.54 59.9193L102.01 60.1472ZM101.087 66.5712C101.458 65.8711 101.745 65.1784 101.949 64.493L102.502 64.6573C102.287 65.3802 101.985 66.1082 101.596 66.8413L101.087 66.5712ZM99.8656 68.4993C99.439 69.0804 98.9567 69.666 98.4187 70.2563L98.8448 70.6447C99.3962 70.0398 99.8914 69.4385 100.33 68.8407L99.8656 68.4993ZM95.1072 73.3766C95.7193 72.8699 96.2925 72.3661 96.8267 71.8655L97.221 72.2863C96.678 72.7952 96.096 73.3067 95.475 73.8208L95.1072 73.3766ZM93.2898 74.8045C92.697 75.248 92.0751 75.6938 91.4242 76.1417L91.7511 76.6168C92.4082 76.1646 93.0363 75.7144 93.6352 75.2662L93.2898 74.8045ZM88.2896 78.1771C88.6993 77.925 89.1001 77.6735 89.4919 77.4226L89.8028 77.9083C89.4081 78.161 89.0045 78.4143 88.5919 78.6682L88.2896 78.1771Z" fill="#C7D0D9"/>
<defs>
<radialGradient id="paint0_radial_4680_48041" cx="0" cy="0" r="1" gradientUnits="userSpaceOnUse" gradientTransform="translate(75.0307 116.137) rotate(-90) scale(29.6062 309.208)">
<stop stop-color="#EBEDF0" stop-opacity="0.24"/>
<stop offset="0.536775" stop-color="#EBEDF0" stop-opacity="0.845525"/>
<stop offset="1" stop-color="#E0E4E7" stop-opacity="0.01"/>
</radialGradient>
<linearGradient id="paint1_linear_4680_48041" x1="65.4286" y1="134.269" x2="66.814" y2="137.231" gradientUnits="userSpaceOnUse">
<stop stop-color="#E1E7EA"/>
<stop offset="1" stop-color="#D0D6DC"/>
</linearGradient>
<linearGradient id="paint2_linear_4680_48041" x1="109.478" y1="117.407" x2="112.013" y2="122.694" gradientUnits="userSpaceOnUse">
<stop stop-color="#E1E7EA"/>
<stop offset="1" stop-color="#D0D6DC"/>
</linearGradient>
<linearGradient id="paint3_linear_4680_48041" x1="29.2777" y1="107.331" x2="30.7121" y2="113.046" gradientUnits="userSpaceOnUse">
<stop stop-color="#FBFBFB"/>
<stop offset="1" stop-color="#D9DFE3"/>
</linearGradient>
<linearGradient id="paint4_linear_4680_48041" x1="64.8179" y1="110.503" x2="69.9361" y2="133.456" gradientUnits="userSpaceOnUse">
<stop stop-color="#C4CDD1"/>
<stop offset="1" stop-color="#C6CFD3" stop-opacity="0.01"/>
</linearGradient>
<linearGradient id="paint5_linear_4680_48041" x1="49.3563" y1="112.813" x2="55.2936" y2="128.308" gradientUnits="userSpaceOnUse">
<stop stop-color="#C4CDD1"/>
<stop offset="1" stop-color="#C6CFD3" stop-opacity="0.01"/>
</linearGradient>
<linearGradient id="paint6_linear_4680_48041" x1="61.0033" y1="106.597" x2="60.1572" y2="82.3665" gradientUnits="userSpaceOnUse">
<stop stop-color="#A1A7B8"/>
<stop offset="1" stop-color="#7B8195"/>
</linearGradient>
<linearGradient id="paint7_linear_4680_48041" x1="56.8408" y1="65.5759" x2="56.8408" y2="63.546" gradientUnits="userSpaceOnUse">
<stop stop-color="#FBD8D6"/>
<stop offset="1" stop-color="#EAC0BE" stop-opacity="0.7"/>
</linearGradient>
<linearGradient id="paint8_linear_4680_48041" x1="40.5479" y1="73.9144" x2="56.5895" y2="90.8368" gradientUnits="userSpaceOnUse">
<stop stop-color="#E5E9F0"/>
<stop offset="1" stop-color="#D2DAE8"/>
</linearGradient>
</defs>
</svg>
