<svg width="9" height="9" viewBox="0 0 9 9" fill="none" xmlns="http://www.w3.org/2000/svg">
<g id="Filter 2">
<mask id="mask0_5348_280" style="mask-type:luminance" maskUnits="userSpaceOnUse" x="0" y="0" width="9" height="9">
<path id="Clip 2" fill-rule="evenodd" clip-rule="evenodd" d="M0.833801 0.833008H8.95863V8.9583H0.833801V0.833008Z" fill="white"/>
</mask>
<g mask="url(#mask0_5348_280)">
<path id="Fill 1" fill-rule="evenodd" clip-rule="evenodd" d="M3.65631 4.83259C3.66381 4.83925 3.67089 4.8455 3.67797 4.853C4.12756 5.31384 4.37547 5.92425 4.37547 6.57217V8.23217L5.30714 7.72467C5.38047 7.68467 5.42589 7.60634 5.42589 7.52009V6.56717C5.42589 5.92175 5.67131 5.31342 6.11672 4.85509L8.13214 2.71134C8.26256 2.57259 8.33422 2.3905 8.33422 2.19842V1.80842C8.33422 1.61509 8.18172 1.458 7.99506 1.458H1.79881C1.61172 1.458 1.45922 1.61509 1.45922 1.80842V2.19842C1.45922 2.3905 1.53089 2.57259 1.66131 2.71092L3.65631 4.83259ZM4.22839 8.95842C4.14423 8.95842 4.06089 8.93593 3.98506 8.89093C3.8384 8.80343 3.75048 8.64884 3.75048 8.47718V6.57218C3.75048 6.09926 3.57423 5.65384 3.25298 5.31259C3.2434 5.30467 3.23381 5.29592 3.22548 5.28676L1.20631 3.13967C0.966312 2.88467 0.834229 2.55009 0.834229 2.19842V1.80842C0.834229 1.27051 1.26715 0.833008 1.79881 0.833008H7.99506C8.52631 0.833008 8.95923 1.27051 8.95923 1.80842V2.19842C8.95923 2.54967 8.82714 2.88384 8.58798 3.13926L6.5684 5.28676C6.23381 5.63176 6.0509 6.08551 6.0509 6.56717V7.52009C6.0509 7.83509 5.88048 8.12343 5.60631 8.27343L4.4559 8.90009C4.38423 8.93884 4.30631 8.95842 4.22839 8.95842Z" fill="#5681AA"/>
</g>
</g>
</svg>
