<svg width="48" height="48" viewBox="0 0 48 48" fill="none" xmlns="http://www.w3.org/2000/svg">
<path d="M24 11.7333C27.7556 11.7333 30.2889 13.3556 31.7334 14.7111L37.3778 9.2C33.9112 5.97778 29.4 4 24 4C16.1778 4 9.42225 8.48889 6.13336 15.0222L12.6 20.0445C14.2223 15.2222 18.7111 11.7333 24 11.7333V11.7333Z" fill="#EA4335"/>
<path d="M43.2 24.4444C43.2 22.7999 43.0667 21.5999 42.7778 20.3555H24V27.7777H35.0222C34.8 29.6221 33.6 32.3999 30.9333 34.2666L37.2445 39.1555C41.0222 35.6666 43.2 30.5333 43.2 24.4444V24.4444Z" fill="#4285F4"/>
<path d="M12.6222 27.9558C12.2 26.7114 11.9556 25.378 11.9556 24.0002C11.9556 22.6225 12.2 21.2891 12.6 20.0447L6.13333 15.0225C4.77778 17.7336 4 20.778 4 24.0002C4 27.2225 4.77778 30.2669 6.13333 32.978L12.6222 27.9558V27.9558Z" fill="#FBBC05"/>
<path d="M24 44C29.4 44 33.9333 42.2222 37.2444 39.1556L30.9333 34.2667C29.2444 35.4445 26.9777 36.2667 24 36.2667C18.7111 36.2667 14.2222 32.7778 12.6222 27.9556L6.15552 32.9778C9.44441 39.5111 16.1777 44 24 44V44Z" fill="#34A853"/>
</svg>
