<svg width="38" height="20" viewBox="0 0 38 20" fill="none" xmlns="http://www.w3.org/2000/svg">
<g id="Group">
<path id="Vector" d="M38 6.09227C38 5.13514 37.2237 4.35889 36.266 4.35889H32.7241V11.6987H5.27532V4.35889H1.73397C0.776254 4.35889 0 5.13514 0 6.09227V16.9741H2.54251V19.7843H5.06506V16.9741H32.9343V19.7843H35.4581V16.9741H38V6.09227Z" fill="#232B42"/>
<path id="Vector_2" d="M18.236 1.30061C18.236 0.582468 17.6536 0 16.9354 0H9.40587C7.96959 0 6.80518 1.16434 6.80518 2.60122V10.1695H18.236V1.30061H18.236Z" fill="#232B42"/>
<path id="Vector_3" d="M31.1953 2.60122C31.1953 1.16434 30.0309 0 28.5946 0H21.0652C20.347 0 19.7651 0.582469 19.7651 1.30061V10.1695H31.1954L31.1953 2.60122Z" fill="#232B42"/>
</g>
</svg>
