<svg width="42" height="42" viewBox="0 0 42 42" fill="none" xmlns="http://www.w3.org/2000/svg">
<path id="Vector" d="M36.6155 0H4.58612C2.04665 0 0.010498 2.05903 0.010498 4.57562V36.605C0.010498 39.1216 2.04665 41.1806 4.58612 41.1806H36.6155C39.1321 41.1806 41.1911 39.1216 41.1911 36.605V4.57562C41.1911 2.05903 39.1321 0 36.6155 0ZM16.5971 27.4537C15.6591 27.4537 14.8813 26.6759 14.8813 25.7379V22.8781H10.3056V25.7379C10.3056 26.6759 9.52779 27.4537 8.58979 27.4537C7.65178 27.4537 6.87393 26.6759 6.87393 25.7379V15.4427C6.87393 14.5047 7.65178 13.7269 8.58979 13.7269C9.52779 13.7269 10.3056 14.5047 10.3056 15.4427V19.4464H14.8813V15.4427C14.8813 14.5047 15.6591 13.7269 16.5971 13.7269C17.5351 13.7269 18.313 14.5047 18.313 15.4427V25.7379C18.313 26.6759 17.5351 27.4537 16.5971 27.4537ZM24.0325 13.7269H32.0398C33.2981 13.7269 34.3277 14.7564 34.3277 16.0147V25.1659C34.3277 26.4242 33.2981 27.4537 32.0398 27.4537H24.0325C23.3919 27.4537 22.8886 26.9504 22.8886 26.3098V14.8708C22.8886 14.2302 23.3919 13.7269 24.0325 13.7269ZM26.3203 24.022H30.8959V17.1586H26.3203V24.022Z" fill="#526EA0"/>
</svg>
