<svg width="14" height="14" viewBox="0 0 14 14" fill="none" xmlns="http://www.w3.org/2000/svg">
<path d="M5.32854 12.1181V10.3344C5.32854 9.87912 5.70035 9.51 6.15901 9.51H7.83561C8.05586 9.51 8.26709 9.59686 8.42284 9.75148C8.57858 9.90609 8.66607 10.1158 8.66607 10.3344V12.1181C8.66468 12.3074 8.73946 12.4894 8.8738 12.6238C9.00815 12.7581 9.19095 12.8337 9.38163 12.8337H10.5255C11.0597 12.835 11.5725 12.6253 11.9508 12.2508C12.329 11.8763 12.5416 11.3677 12.5416 10.8374V5.75599C12.5416 5.32759 12.3503 4.92123 12.0193 4.64638L8.1281 1.56125C7.45122 1.02032 6.4814 1.03779 5.82473 1.60273L2.02234 4.64638C1.67568 4.91313 1.46849 5.3207 1.45825 5.75599V10.8322C1.45825 11.9376 2.36089 12.8337 3.47435 12.8337H4.59209C4.98813 12.8337 5.31 12.5165 5.31287 12.1233L5.32854 12.1181Z" fill="#53677A"/>
</svg>
