<svg width="35" height="35" viewBox="0 0 35 35" fill="none" xmlns="http://www.w3.org/2000/svg">
<g id="building-fill">
<path id="Union" fill-rule="evenodd" clip-rule="evenodd" d="M10.2063 10.2206C10.2067 9.24443 10.2069 8.26821 10.2069 7.29199C11.6667 7.30569 29.1653 7.29199 30.6236 7.29199L30.6236 29.1542C30.6236 29.9587 29.9703 30.6116 29.1653 30.6116H23.3319L23.3328 26.2535C23.3331 24.6434 22.0272 23.3379 20.4162 23.3379C18.8056 23.3379 17.4998 24.6426 17.4995 26.2523L17.4986 30.6116L10.2084 30.6252L5.83341 30.6253C5.028 30.6253 4.37508 29.9728 4.37508 29.1679L4.37508 13.1356C3.56967 13.1356 2.91675 12.4831 2.91675 11.6781C2.91675 10.8732 3.56967 10.2206 4.37508 10.2206H10.2063ZM10.2048 13.1356H7.29175L7.29175 27.7104H10.2035C10.1977 22.8521 10.2019 17.9939 10.2048 13.1356ZM17.5001 14.5929C18.3055 14.5929 18.9584 13.9404 18.9584 13.1354C18.9584 12.3305 18.3055 11.6779 17.5001 11.6779C16.6947 11.6779 16.0417 12.3305 16.0417 13.1354C16.0417 13.9404 16.6947 14.5929 17.5001 14.5929ZM24.7917 13.1354C24.7917 13.9404 24.1388 14.5929 23.3334 14.5929C22.528 14.5929 21.8751 13.9404 21.8751 13.1354C21.8751 12.3305 22.528 11.6779 23.3334 11.6779C24.1388 11.6779 24.7917 12.3305 24.7917 13.1354ZM17.5001 20.4228C18.3055 20.4228 18.9584 19.7703 18.9584 18.9653C18.9584 18.1604 18.3055 17.5079 17.5001 17.5079C16.6947 17.5079 16.0417 18.1604 16.0417 18.9653C16.0417 19.7703 16.6947 20.4228 17.5001 20.4228ZM24.7917 18.9653C24.7917 19.7703 24.1388 20.4228 23.3334 20.4228C22.528 20.4228 21.8751 19.7703 21.8751 18.9653C21.8751 18.1604 22.528 17.5079 23.3334 17.5079C24.1388 17.5079 24.7917 18.1604 24.7917 18.9653Z" fill="#232B42"/>
<path id="Union_2" fill-rule="evenodd" clip-rule="evenodd" d="M10.2083 4.375C9.40292 4.375 8.75 5.02792 8.75 5.83333C8.75 6.63875 9.40292 7.29167 10.2083 7.29167L30.625 7.29167C31.4304 7.29167 32.0833 6.63875 32.0833 5.83333C32.0833 5.02792 31.4304 4.375 30.625 4.375L10.2083 4.375ZM17.5 14.5833C18.3054 14.5833 18.9583 13.9304 18.9583 13.125C18.9583 12.3196 18.3054 11.6667 17.5 11.6667C16.6946 11.6667 16.0417 12.3196 16.0417 13.125C16.0417 13.9304 16.6946 14.5833 17.5 14.5833ZM20.4167 23.3333C18.8058 23.3333 17.5 24.6392 17.5 26.25L17.5 30.625H23.3333L23.3333 26.25C23.3333 24.6392 22.0275 23.3333 20.4167 23.3333ZM18.9583 18.9583C18.9583 19.7638 18.3054 20.4167 17.5 20.4167C16.6946 20.4167 16.0417 19.7638 16.0417 18.9583C16.0417 18.1529 16.6946 17.5 17.5 17.5C18.3054 17.5 18.9583 18.1529 18.9583 18.9583ZM23.3333 20.4167C24.1387 20.4167 24.7917 19.7638 24.7917 18.9583C24.7917 18.1529 24.1387 17.5 23.3333 17.5C22.5279 17.5 21.875 18.1529 21.875 18.9583C21.875 19.7638 22.5279 20.4167 23.3333 20.4167ZM24.7917 13.125C24.7917 13.9304 24.1387 14.5833 23.3333 14.5833C22.5279 14.5833 21.875 13.9304 21.875 13.125C21.875 12.3196 22.5279 11.6667 23.3333 11.6667C24.1387 11.6667 24.7917 12.3196 24.7917 13.125Z" fill="white"/>
</g>
</svg>
