<svg width="16" height="17" viewBox="0 0 16 17" fill="none" xmlns="http://www.w3.org/2000/svg">
<g id="Icon - Edit">
<g id="Edit-Square">
<path id="Combined-Shape" fill-rule="evenodd" clip-rule="evenodd" d="M7.32632 0.56706C7.64586 0.56706 7.9052 0.8255 7.9052 1.14394C7.9052 1.46237 7.64586 1.72081 7.32632 1.72081H4.44041C2.44597 1.72081 1.15776 3.08223 1.15776 5.18898V11.5838C1.15776 13.6906 2.44597 15.052 4.44041 15.052H11.2511C13.2456 15.052 14.5346 13.6906 14.5346 11.5838V8.48563C14.5346 8.1672 14.7939 7.90876 15.1134 7.90876C15.433 7.90876 15.6923 8.1672 15.6923 8.48563V11.5838C15.6923 14.3482 13.907 16.2058 11.2511 16.2058H4.44041C1.7845 16.2058 0 14.3482 0 11.5838V5.18898C0 2.4246 1.7845 0.56706 4.44041 0.56706H7.32632ZM14.0488 1.24285L14.9881 2.17893C15.4458 2.63427 15.6974 3.23961 15.6966 3.88417C15.6966 4.52873 15.445 5.13329 14.9881 5.58787L9.19233 11.3635C8.76704 11.7874 8.20051 12.0212 7.59847 12.0212H4.70715C4.55124 12.0212 4.4015 11.9581 4.29268 11.8466C4.18385 11.7358 4.12441 11.5858 4.12827 11.4297L4.20083 8.52301C4.21549 7.9446 4.44936 7.4008 4.85998 6.99083H4.86075L10.6287 1.24285C11.5719 0.304467 13.1056 0.304467 14.0488 1.24285ZM10.1536 3.34729L5.6789 7.80692C5.479 8.00613 5.36554 8.27072 5.35859 8.55147L5.3007 10.8674H7.59847C7.89177 10.8674 8.16655 10.7544 8.37418 10.5475L12.8759 6.06014L10.1536 3.34729ZM11.4469 2.05894L10.9717 2.5312L13.694 5.24482L14.1699 4.77179C14.4077 4.53488 14.5389 4.21952 14.5389 3.88417C14.5389 3.54804 14.4077 3.23191 14.1699 2.99501L13.2306 2.05894C12.7389 1.57051 11.9393 1.57051 11.4469 2.05894Z" fill="#FCFCFC"/>
</g>
</g>
</svg>
