<svg width="61" height="61" viewBox="0 0 61 61" fill="none" xmlns="http://www.w3.org/2000/svg">
<g id="Insert picture icon">
<g id="Group">
<path id="Vector" d="M54.104 1.90918H6.89923C3.09421 1.90918 0 5.00237 0 8.81188V52.1959C0 56.001 3.09421 59.0909 6.89923 59.0909H54.1038C57.9089 59.0909 60.9998 56.001 60.9998 52.1959V8.81188C61 5.00237 57.9091 1.90918 54.104 1.90918ZM39.4457 12.1748C43.1253 12.1748 46.1095 15.1592 46.1095 18.8386C46.1095 22.518 43.1251 25.5024 39.4457 25.5024C35.765 25.5024 32.7819 22.518 32.7819 18.8386C32.7819 15.1592 35.765 12.1748 39.4457 12.1748ZM51.9404 52.7134H30.4994H10.0137C8.17322 52.7134 7.35357 51.3818 8.18323 49.739L19.6195 27.0874C20.4482 25.4448 22.0274 25.2982 23.1458 26.7596L34.6454 41.7878C35.7638 43.2494 37.7186 43.3738 39.0124 42.0643L41.8256 39.2155C43.1184 37.906 45.0232 38.0681 46.0782 39.5753L53.363 49.981C54.416 51.4904 53.7808 52.7134 51.9404 52.7134Z" fill="#E8EEF4"/>
</g>
</g>
</svg>
