<svg width="24" height="25" viewBox="0 0 24 25" fill="none" xmlns="http://www.w3.org/2000/svg">
<g id="Link" clip-path="url(#clip0_5080_34246)">
<path id="Vector" d="M22.1872 2.79769C21.0519 1.66145 19.4619 0.998177 17.856 0.985052C16.2079 0.971927 14.5954 1.6427 13.425 2.79769L10.4878 5.73532C10.9045 5.66548 11.3287 5.62938 11.7572 5.62938C12.5939 5.62938 13.4179 5.76532 14.2073 6.0325C14.4234 6.10563 14.6343 6.18813 14.841 6.27906L15.8737 5.24642C16.3556 4.76314 17.0245 4.47346 17.706 4.44861C18.4574 4.42096 19.2074 4.71486 19.739 5.24642C20.8044 6.31234 20.8044 8.04576 19.739 9.11169L17.6207 11.229L14.175 14.6752C13.5051 15.3451 12.4865 15.624 11.5687 15.3905C10.7686 15.1871 10.0753 14.6002 9.74249 13.8446C9.70312 13.7551 9.6689 13.6637 9.63984 13.5704L7.07627 16.1504C7.31533 16.508 7.59236 16.8399 7.89939 17.1413C8.58704 17.8163 9.42797 18.338 10.3448 18.6375C10.5098 18.6914 10.6772 18.7383 10.8464 18.7772C12.8207 19.2338 15.0028 18.6479 16.4807 17.2613C16.529 17.2163 22.1872 11.5599 22.1872 11.5599C24.6031 9.14404 24.6031 5.21361 22.1872 2.79769ZM9.79265 19.9374C9.57656 19.8642 9.36562 19.7817 9.15891 19.6908C9.15891 19.6908 8.12626 20.7235 8.12626 20.7239C7.64158 21.2086 6.9708 21.4983 6.28597 21.5217C5.53879 21.547 4.78832 21.2545 4.26099 20.7235C3.19553 19.658 3.19553 17.9241 4.26099 16.8582L10.0959 11.0828C10.2169 10.9604 10.3641 10.8671 10.5173 10.7898C11.2181 10.4354 12.0736 10.4026 12.7992 10.7021C13.5464 11.0101 14.1614 11.6753 14.3793 12.4576C14.3812 12.4642 14.3831 12.4707 14.3849 12.4773C14.3849 12.4773 16.9748 9.88747 16.9762 9.88606C17.0446 9.81715 16.2267 8.93966 16.1432 8.85669C15.8156 8.53185 15.4513 8.24311 15.0609 7.99701C14.28 7.5053 13.3912 7.18187 12.4734 7.07499C10.627 6.86031 8.68782 7.52499 7.37674 8.84638L1.81273 14.4099C-0.603185 16.8258 -0.603185 20.7563 1.81273 23.1722C2.95506 24.315 4.5563 24.9792 6.17159 24.9848C7.80236 24.9904 9.4214 24.3253 10.575 23.1722L13.5121 20.235C13.0954 20.3049 12.6717 20.3405 12.2428 20.3405C11.4065 20.3405 10.582 20.205 9.79265 19.9374Z" fill="#A0BADC"/>
</g>
<defs>
<clipPath id="clip0_5080_34246">
<rect width="24" height="24" fill="white" transform="translate(0 0.984863)"/>
</clipPath>
</defs>
</svg>
