<svg width="44" height="36" viewBox="0 0 44 36" fill="none" xmlns="http://www.w3.org/2000/svg">
<path d="M18.1865 20.7113L21.8843 18.2847L25.4665 20.7113V28.1069L18.1865 27.9913V20.7113Z" fill="white"/>
<path fill-rule="evenodd" clip-rule="evenodd" d="M21.885 0.72033L21.8848 0.720215L5.70703 11.3513V31.2269L12.8715 28.6847L12.987 28.6708V17.0131L21.8847 11.6975L21.885 11.6977V0.72033ZM37.9469 31.6891L37.947 31.6891V31.6891H37.9469Z" fill="white"/>
<path fill-rule="evenodd" clip-rule="evenodd" d="M21.8846 0.720296L21.8847 0.720215L38.0625 11.3513V31.2269L30.8981 28.6847L30.7822 28.6708V17.0131L21.8846 11.6976V0.720296ZM5.82264 31.6891L5.8225 31.6891V31.6891H5.82264Z" fill="#A9CBEC"/>
<path d="M43.1467 34.5777C37.9467 33.3066 33.44 31.6888 21.8844 30.9955C10.9067 31.3421 5.36 32.3821 0.391113 34.6933C3.39556 30.7644 10.6756 27.5288 21.8844 27.5288C30.4356 27.5288 40.1422 30.9955 43.1467 34.5777Z" fill="#7C7D80"/>
<path d="M43.7246 34.9246C38.0624 33.3068 34.249 31.8046 22.0002 31.1112C8.82682 31.1112 5.93793 32.8446 0.160156 35.0401C2.47127 32.2668 9.52016 28.3379 22.0002 28.3379C29.8579 28.3379 39.3335 31.8046 43.7246 34.9246Z" fill="white"/>
</svg>
