<svg width="14" height="16" viewBox="0 0 14 16" fill="none" xmlns="http://www.w3.org/2000/svg">
<g id="Group 1000004366">
<g id="Paper Upload">
<g id="Group 3">
<mask id="mask0_5368_6810" style="mask-type:luminance" maskUnits="userSpaceOnUse" x="0" y="0" width="14" height="16">
<path id="Clip 2" fill-rule="evenodd" clip-rule="evenodd" d="M0 0.00878906H13.4996V15.7261H0V0.00878906Z" fill="white"/>
</mask>
<g mask="url(#mask0_5368_6810)">
<path id="Fill 1" fill-rule="evenodd" clip-rule="evenodd" d="M3.62019 1.19648C2.3084 1.19648 1.21907 2.2589 1.18819 3.56911V12.055C1.15969 13.4016 2.22053 14.5099 3.55449 14.5392H9.95353C11.2748 14.4917 12.3206 13.4016 12.3119 12.0589V5.01865L8.64332 1.19648H3.62969H3.62019ZM3.62985 15.7265H3.5301C1.54143 15.6838 -0.0419043 14.0308 0.000845722 12.0421V3.55466C0.0475541 1.59054 1.66889 0.00878906 3.61797 0.00878906H3.63222H8.89601C9.05751 0.00878906 9.21189 0.0744974 9.32431 0.190872L13.3349 4.3685C13.4402 4.47854 13.4996 4.62658 13.4996 4.77937V12.0548C13.5122 14.0411 11.9637 15.6553 9.97426 15.7265H3.62985Z" fill="#5681AA"/>
</g>
</g>
<path id="Fill 4" fill-rule="evenodd" clip-rule="evenodd" d="M12.9023 5.529H10.722C9.27248 5.52504 8.09528 4.34387 8.09528 2.89671V0.59375C8.09528 0.266 8.36128 0 8.68903 0C9.01678 0 9.28278 0.266 9.28278 0.59375V2.89671C9.28278 3.69154 9.92878 4.33913 10.7236 4.3415H12.9023C13.23 4.3415 13.496 4.6075 13.496 4.93525C13.496 5.263 13.23 5.529 12.9023 5.529Z" fill="#5681AA"/>
<path id="Fill 6" fill-rule="evenodd" clip-rule="evenodd" d="M6.44534 11.6374C6.11759 11.6374 5.85159 11.3714 5.85159 11.0437V6.26123C5.85159 5.93348 6.11759 5.66748 6.44534 5.66748C6.77309 5.66748 7.03909 5.93348 7.03909 6.26123V11.0437C7.03909 11.3714 6.77309 11.6374 6.44534 11.6374Z" fill="#5681AA"/>
<path id="Fill 8" fill-rule="evenodd" clip-rule="evenodd" d="M4.58904 8.71957C4.43783 8.71957 4.28583 8.66178 4.17025 8.54619C3.93829 8.31503 3.9367 7.93978 4.16866 7.70703L6.02433 5.84186C6.24758 5.61782 6.64341 5.61782 6.86587 5.84186L8.72312 7.70703C8.95429 7.93978 8.9535 8.31503 8.72154 8.54619C8.48879 8.77736 8.11275 8.77736 7.88158 8.54461L6.4455 7.10219L5.00941 8.54461C4.89383 8.66178 4.74104 8.71957 4.58904 8.71957Z" fill="#5681AA"/>
</g>
</g>
</svg>
