<svg width="173" height="173" viewBox="0 0 173 173" fill="none" xmlns="http://www.w3.org/2000/svg">
<g id="no content backup">
<g id="&#229;&#136;&#134;&#231;&#187;&#132; 14">
<g id="&#229;&#136;&#134;&#231;&#187;&#132; 4">
<g id="&#229;&#136;&#134;&#231;&#187;&#132; 3 copy">
<path id="&#232;&#183;&#175;&#229;&#190;&#132;" d="M172.28 148.022C176.453 139.764 164.528 98.4775 81.8421 98.4775C22.1598 98.4775 -5.23275 132.271 0.823196 149.398" fill="url(#paint0_radial_3047_3648)"/>
<mask id="mask0_3047_3648" style="mask-type:luminance" maskUnits="userSpaceOnUse" x="0" y="98" width="173" height="52">
<path id="&#232;&#183;&#175;&#229;&#190;&#132;_2" d="M172.28 148.022C176.453 139.764 164.528 98.4775 81.8421 98.4775C22.1598 98.4775 -5.23275 132.271 0.823196 149.398" fill="white"/>
</mask>
<g mask="url(#mask0_3047_3648)">
<ellipse id="&#230;&#164;&#173;&#229;&#156;&#134;&#229;&#189;&#162; copy 2" opacity="0.671968" cx="69.0889" cy="134.938" rx="4.54731" ry="2.52581" fill="url(#paint1_linear_3047_3648)"/>
<ellipse id="&#230;&#164;&#173;&#229;&#156;&#134;&#229;&#189;&#162; copy 3" opacity="0.256348" cx="115.502" cy="117.775" rx="7.17465" ry="3.94026" fill="url(#paint2_linear_3047_3648)"/>
<ellipse id="&#230;&#164;&#173;&#229;&#156;&#134;&#229;&#189;&#162; copy 4" opacity="0.729957" cx="33.8523" cy="107.267" rx="7.17465" ry="3.94026" fill="url(#paint3_linear_3047_3648)"/>
</g>
</g>
<g id="&#229;&#136;&#134;&#231;&#187;&#132; 7">
<path id="&#232;&#183;&#175;&#229;&#190;&#132; 19" opacity="0.5" d="M67.4034 107.634C67.4034 107.634 84.9982 115.907 91.9783 119.082C97.5071 121.597 125.976 129.643 129.368 127.356C132.759 125.069 140.248 118.792 137.776 114.492C135.303 110.192 122.302 102.471 116.084 101.343C109.866 100.214 92.0869 105.343 92.0869 105.343L76.9216 107.947L67.4034 107.634Z" fill="url(#paint4_linear_3047_3648)"/>
<path id="&#231;&#159;&#169;&#229;&#189;&#162; copy 6&#229;&#164;&#135;&#228;&#187;&#189;" d="M80.445 70.6419L60.8383 85.0586L66.0662 72.7933L85.7015 60.3277L80.445 70.6419Z" fill="#E2E7EC"/>
<path id="&#231;&#159;&#169;&#229;&#189;&#162; copy 4" d="M65.74 73.0465L85.7015 60.5503V94.631L67.4035 107.46L65.74 73.0465Z" fill="#D8DFE6"/>
<path id="&#231;&#159;&#169;&#229;&#189;&#162; copy 5" d="M85.7015 60.5503L116.309 67.711V101.804L85.7015 94.6434V60.5503Z" fill="#E9EFF1"/>
<path id="&#231;&#159;&#169;&#229;&#189;&#162;" d="M65.74 73.0449L97.0131 80.3534V114.447L67.4035 107.647L65.74 73.0449Z" fill="#E8EAEB"/>
<g id="&#231;&#159;&#169;&#229;&#189;&#162;_2">
<path id="Mask" d="M96.3473 80.3659L116.309 67.8696V101.95L96.3473 114.447V80.3659Z" fill="#D8DFE6"/>
<mask id="mask1_3047_3648" style="mask-type:luminance" maskUnits="userSpaceOnUse" x="96" y="67" width="21" height="48">
<path id="Mask_2" d="M96.3473 80.3659L116.309 67.8696V101.95L96.3473 114.447V80.3659Z" fill="white"/>
</mask>
<g mask="url(#mask1_3047_3648)">
<rect id="&#231;&#159;&#169;&#229;&#189;&#162;_3" x="103.762" y="65.0298" width="6.27363" height="52.257" fill="#C7D0D9"/>
</g>
</g>
<path id="&#231;&#159;&#169;&#229;&#189;&#162; copy 6" d="M105.323 90.4927L124.959 78.0271L115.983 67.8696L96.3473 80.3353L105.323 90.4927Z" fill="#E2E7EC"/>
</g>
</g>
</g>
<g id="&#229;&#136;&#134;&#231;&#187;&#132; 2&#229;&#164;&#135;&#228;&#187;&#189;">
<g id="&#231;&#188;&#150;&#231;&#187;&#132;">
<path id="&#232;&#183;&#175;&#229;&#190;&#132; 10" opacity="0.5" d="M50.4276 108.492L81.3098 124.272L84.1931 115.91L53.8929 105.831L50.4276 108.492Z" fill="url(#paint5_linear_3047_3648)"/>
<path id="&#232;&#183;&#175;&#229;&#190;&#132; 7" d="M49.5844 82.5524L60.2333 83.3918L57.8685 106.555C57.8685 106.555 57.6614 106.787 57.159 106.697C56.6566 106.607 56.1295 106.327 56.1295 106.327L54.5458 87.9131C54.5458 87.9131 53.6298 94.4244 53.6938 96.2563C53.742 97.6365 54.2139 99.3202 54.4664 100.76C54.6838 102 55.1411 104.962 55.1411 104.962C55.1411 104.962 54.6008 105.209 54.3134 105.264C54.0259 105.32 53.6575 105.014 53.6575 105.014C53.6575 105.014 49.9239 97.7661 49.8758 96.3896C49.8277 95.0132 49.5844 82.5524 49.5844 82.5524Z" fill="url(#paint6_linear_3047_3648)"/>
<path id="&#232;&#183;&#175;&#229;&#190;&#132; 8" d="M53.4922 104.98C53.4922 104.98 53.0179 105.834 52.4287 106.355C51.8395 106.875 50.6768 107.497 50.4118 107.779C50.1467 108.062 50.4362 108.478 50.4362 108.478L53.2858 108.379L55.5627 106.452L55.2446 104.617L53.4922 104.98Z" fill="#677285"/>
<path id="&#232;&#183;&#175;&#229;&#190;&#132; 9" d="M58.1366 105.969L58.8019 107.814C58.8019 107.814 57.7094 108.66 56.2 108.896C54.6906 109.131 53.6505 108.769 53.6505 108.769C53.6505 108.769 53.378 108.22 53.8916 107.986C54.1275 107.878 54.6563 107.43 55.1205 106.856C55.3301 106.597 56.1195 106.04 56.1195 106.04L58.1366 105.969Z" fill="#677285"/>
</g>
<path id="&#232;&#183;&#175;&#229;&#190;&#132; 3" d="M62.9071 70.4762C62.9071 70.4762 63.7799 71.804 64.3151 71.4487C64.8503 71.0934 68.1914 67.669 68.1914 67.669C68.1914 67.669 69.1852 66.9038 69.3691 67.0857C69.5529 67.2676 69.0376 67.669 69.0376 67.669C69.0376 67.669 70.1221 67.7755 70.461 67.7755C70.7999 67.7755 71.5126 68.3165 71.0466 68.4986C70.5805 68.6807 68.7725 68.7256 68.7725 68.7256C68.7725 68.7256 66.0277 73.9164 64.5974 74.2844C63.1671 74.6525 61.1964 72.5709 61.1964 72.5709L62.9071 70.4762Z" fill="#FDE7E6"/>
<path id="&#232;&#183;&#175;&#229;&#190;&#132; 4" d="M48.9615 70.5709C48.9615 70.5709 48.3892 71.7427 47.8706 71.4616C47.352 71.1804 44.4423 68.1119 44.4423 68.1119C44.4423 68.1119 43.4733 67.5184 43.2363 67.6252C42.9994 67.732 43.5836 68.1119 43.5836 68.1119C43.5836 68.1119 42.1579 68.2275 41.8897 68.3353C41.6215 68.4431 41.3092 68.7737 41.7147 68.924C42.1202 69.0742 43.6724 69.1811 43.6724 69.1811C43.6724 69.1811 45.8302 73.4451 47.465 73.9437C49.0998 74.4422 50.4926 72.4777 50.4926 72.4777L48.9615 70.5709Z" fill="#FDE7E6"/>
<g id="&#232;&#183;&#175;&#229;&#190;&#132; 12">
<path id="Mask_3" d="M54.2544 66.9829V64.888C54.2544 64.888 53.1682 64.943 52.7267 64.2157C52.2851 63.4883 52.1659 61.4243 52.1659 61.4243L52.4986 60.4674L55.7702 60.3291L57.489 61.7938L56.6887 63.2072L56.5361 63.4789L57.2989 66.6911L54.2544 66.9829Z" fill="#FDE7E6"/>
<mask id="mask2_3047_3648" style="mask-type:luminance" maskUnits="userSpaceOnUse" x="52" y="60" width="6" height="7">
<path id="Mask_4" d="M54.2544 66.9829V64.888C54.2544 64.888 53.1682 64.943 52.7267 64.2157C52.2851 63.4883 52.1659 61.4243 52.1659 61.4243L52.4986 60.4674L55.7702 60.3291L57.489 61.7938L56.6887 63.2072L56.5361 63.4789L57.2989 66.6911L54.2544 66.9829Z" fill="white"/>
</mask>
<g mask="url(#mask2_3047_3648)">
<path id="&#232;&#183;&#175;&#229;&#190;&#132; 12_2" d="M56.3827 62.8966C55.4158 64.0991 53.7435 64.9395 53.5258 64.9395C53.308 64.9395 54.7417 66.4476 54.7417 66.4476L55.9082 66.9824L57.5637 66.6314L58.1548 64.9395L57.1114 63.0199C57.1114 63.0199 57.3495 61.6941 56.3827 62.8966Z" fill="url(#paint7_linear_3047_3648)"/>
</g>
</g>
<path id="&#232;&#183;&#175;&#229;&#190;&#132; 2" d="M48.2666 71.4125L49.8743 73.5781L50.8997 72.4953C50.8997 72.4953 50.1198 76.7711 49.8743 78.8217C49.6288 80.8724 49.5832 82.915 49.5832 82.915C49.5832 82.915 52.1575 83.8707 54.0766 84.0315C55.9957 84.1923 60.4632 83.7783 60.4632 83.7783L59.8866 71.7422L61.5598 73.2957L63.5245 71.0271C63.5245 71.0271 60.1424 65.8297 59.5028 65.5269C58.8632 65.2241 57.0853 65.5269 57.0853 65.5269C57.0853 65.5269 55.8237 67.0199 55.3121 67.0407C54.8005 67.0616 53.6657 65.5269 53.6657 65.5269C53.6657 65.5269 51.8526 65.2373 51.3254 65.8297C50.7983 66.422 48.2666 71.4125 48.2666 71.4125Z" fill="url(#paint8_linear_3047_3648)"/>
<path id="&#232;&#183;&#175;&#229;&#190;&#132; 6" d="M52.1663 61.4469C52.1663 61.4469 52.5519 60.474 53.0552 60.6435C53.5314 60.8039 53.944 61.1857 54.5366 61.3649C55.1291 61.5441 55.1946 60.7391 55.5972 60.875C55.9999 61.0109 55.7341 62.1951 56.0179 62.4156C56.3018 62.6362 56.3018 60.875 56.9068 61.3491C57.5118 61.8233 56.2755 63.1578 56.2755 63.1578C56.2755 63.1578 56.434 63.978 56.4849 64.0338C56.5357 64.0896 56.5299 63.4371 56.5299 63.4371C56.5299 63.4371 57.1077 63.2153 57.3539 62.2148C57.6002 61.2144 57.7067 60.8161 57.3539 60.0892C57.0012 59.3623 56.9007 58.793 56.0179 58.4501C55.1352 58.1072 54.4654 58.2413 53.8485 58.4501C53.2315 58.6589 52.7844 59.0737 52.499 59.4865C51.8336 60.4664 52.1663 61.4469 52.1663 61.4469Z" fill="#4D364F"/>
</g>
<g id="&#231;&#188;&#150;&#231;&#187;&#132; 2">
<g id="&#232;&#183;&#175;&#229;&#190;&#132; 28">
<path id="&#232;&#146;&#153;&#231;&#137;&#136;" fill-rule="evenodd" clip-rule="evenodd" d="M111.652 35.7876C110.951 36.0019 96.4354 44.6867 96.4354 44.6867L100.671 45.0025L103.681 48.3292C103.681 48.3292 112.353 35.5732 111.652 35.7876Z" fill="#E8EAEB"/>
<mask id="mask3_3047_3648" style="mask-type:luminance" maskUnits="userSpaceOnUse" x="96" y="35" width="16" height="14">
<path id="&#232;&#146;&#153;&#231;&#137;&#136;_2" fill-rule="evenodd" clip-rule="evenodd" d="M111.652 35.7876C110.951 36.0019 96.4354 44.6867 96.4354 44.6867L100.671 45.0025L103.681 48.3292C103.681 48.3292 112.353 35.5732 111.652 35.7876Z" fill="white"/>
</mask>
<g mask="url(#mask3_3047_3648)">
<path id="&#232;&#183;&#175;&#229;&#190;&#132; 28_2" fill-rule="evenodd" clip-rule="evenodd" d="M100.671 45.0031L111.652 35.7882L103.681 48.3298L100.671 45.0031Z" fill="#D8DFE6"/>
</g>
</g>
<path id="&#232;&#183;&#175;&#229;&#190;&#132; 13" fill-rule="evenodd" clip-rule="evenodd" d="M109.472 45.8514L104.382 45.3194L111.657 35.8775L109.472 45.8514Z" fill="#E8EAEB"/>
</g>
<path id="&#232;&#183;&#175;&#229;&#190;&#132; 5" fill-rule="evenodd" clip-rule="evenodd" d="M100.1 52.1421C100.418 51.4691 100.738 50.7725 101.061 50.0522L101.587 50.2878C101.263 51.0116 100.941 51.7119 100.621 52.3885L100.1 52.1421ZM98.0288 56.248C98.3803 55.5996 98.7346 54.9204 99.0918 54.2105L99.6069 54.4697C99.2471 55.1848 98.8901 55.8691 98.5358 56.5228L98.0288 56.248ZM96.8985 58.2456C96.4887 58.9363 96.083 59.5837 95.6815 60.1876L96.1618 60.5069C96.5689 59.8945 96.9797 59.2388 97.3944 58.5398L96.8985 58.2456ZM92.868 63.7799C93.3544 63.2754 93.848 62.6996 94.3488 62.0527L94.8048 62.4056C94.2917 63.0685 93.7846 63.66 93.2832 64.1801L92.868 63.7799ZM91.1742 65.2701C90.5001 65.7531 89.8437 66.0872 89.2053 66.274L89.3672 66.8275C90.0715 66.6214 90.7857 66.258 91.5101 65.7388L91.1742 65.2701ZM85.1387 65.3312C85.7728 65.8425 86.4176 66.1774 87.0737 66.339L86.9358 66.8989C86.1938 66.7162 85.4739 66.3423 84.7767 65.7801L85.1387 65.3312ZM83.5845 63.6933C83.5488 63.6465 83.5131 63.5991 83.4775 63.5512C83.0133 62.9263 82.6761 62.3333 82.4611 61.7732L81.9227 61.9799C82.1576 62.5918 82.5206 63.2301 83.0146 63.8951C83.0518 63.9451 83.089 63.9945 83.1263 64.0433L83.5845 63.6933ZM83.4464 57.8922C82.8235 58.4067 82.4228 58.9973 82.2594 59.6561L81.6997 59.5173C81.8947 58.7312 82.3657 58.0369 83.0791 57.4476L83.4464 57.8922ZM85.3729 56.8087C86.0217 56.5553 86.7514 56.3487 87.5425 56.1927L87.431 55.6269C86.6076 55.7892 85.8452 56.0051 85.1631 56.2715L85.3729 56.8087ZM92.0571 55.8627C91.2899 55.8354 90.5253 55.848 89.7808 55.9005L89.7403 55.3252C90.5053 55.2714 91.2902 55.2584 92.0776 55.2864L92.0571 55.8627ZM94.3525 56.065C95.1255 56.175 95.8733 56.3258 96.5796 56.5148L96.7287 55.9577C95.9996 55.7626 95.2292 55.6073 94.4338 55.4941L94.3525 56.065ZM100.636 58.4148C100.109 57.9856 99.4653 57.6004 98.7225 57.2657L98.9595 56.7399C99.7456 57.0943 100.432 57.505 101 57.9675L100.636 58.4148ZM102.01 60.147C102.149 60.4703 102.238 60.807 102.276 61.1573C102.316 61.5278 102.329 61.9002 102.317 62.2746L102.894 62.2934C102.907 61.8922 102.892 61.493 102.849 61.0958C102.806 60.6878 102.702 60.295 102.54 59.9191L102.01 60.147ZM101.087 66.571C101.458 65.8709 101.745 65.1782 101.949 64.4928L102.502 64.6571C102.287 65.3801 101.985 66.108 101.596 66.8411L101.087 66.571ZM99.8656 68.4992C99.439 69.0802 98.9567 69.6659 98.4187 70.2561L98.8448 70.6446C99.3962 70.0397 99.8914 69.4383 100.33 68.8405L99.8656 68.4992ZM95.1072 73.3764C95.7193 72.8697 96.2925 72.366 96.8267 71.8653L97.221 72.2861C96.678 72.795 96.096 73.3065 95.475 73.8206L95.1072 73.3764ZM93.2898 74.8043C92.697 75.2478 92.0751 75.6936 91.4242 76.1415L91.7511 76.6166C92.4082 76.1644 93.0363 75.7142 93.6352 75.2661L93.2898 74.8043ZM88.2896 78.1769C88.6993 77.9248 89.1001 77.6733 89.4919 77.4225L89.8028 77.9081C89.4081 78.1608 89.0045 78.4141 88.5919 78.668L88.2896 78.1769Z" fill="#C7D0D9"/>
</g>
<defs>
<radialGradient id="paint0_radial_3047_3648" cx="0" cy="0" r="1" gradientUnits="userSpaceOnUse" gradientTransform="translate(75.0307 116.137) rotate(-90) scale(29.6062 309.208)">
<stop stop-color="#EBEDF0" stop-opacity="0.24"/>
<stop offset="0.536775" stop-color="#EBEDF0" stop-opacity="0.845525"/>
<stop offset="1" stop-color="#E0E4E7" stop-opacity="0.01"/>
</radialGradient>
<linearGradient id="paint1_linear_3047_3648" x1="65.4287" y1="134.268" x2="66.8141" y2="137.231" gradientUnits="userSpaceOnUse">
<stop stop-color="#E1E7EA"/>
<stop offset="1" stop-color="#D0D6DC"/>
</linearGradient>
<linearGradient id="paint2_linear_3047_3648" x1="109.478" y1="117.406" x2="112.013" y2="122.694" gradientUnits="userSpaceOnUse">
<stop stop-color="#E1E7EA"/>
<stop offset="1" stop-color="#D0D6DC"/>
</linearGradient>
<linearGradient id="paint3_linear_3047_3648" x1="29.2776" y1="107.331" x2="30.7119" y2="113.046" gradientUnits="userSpaceOnUse">
<stop stop-color="#FBFBFB"/>
<stop offset="1" stop-color="#D9DFE3"/>
</linearGradient>
<linearGradient id="paint4_linear_3047_3648" x1="64.818" y1="110.503" x2="69.9362" y2="133.455" gradientUnits="userSpaceOnUse">
<stop stop-color="#C4CDD1"/>
<stop offset="1" stop-color="#C6CFD3" stop-opacity="0.01"/>
</linearGradient>
<linearGradient id="paint5_linear_3047_3648" x1="49.356" y1="112.812" x2="55.2932" y2="128.307" gradientUnits="userSpaceOnUse">
<stop stop-color="#C4CDD1"/>
<stop offset="1" stop-color="#C6CFD3" stop-opacity="0.01"/>
</linearGradient>
<linearGradient id="paint6_linear_3047_3648" x1="61.0031" y1="106.597" x2="60.1569" y2="82.3664" gradientUnits="userSpaceOnUse">
<stop stop-color="#A1A7B8"/>
<stop offset="1" stop-color="#7B8195"/>
</linearGradient>
<linearGradient id="paint7_linear_3047_3648" x1="56.8408" y1="65.5757" x2="56.8408" y2="63.5459" gradientUnits="userSpaceOnUse">
<stop stop-color="#FBD8D6"/>
<stop offset="1" stop-color="#EAC0BE" stop-opacity="0.7"/>
</linearGradient>
<linearGradient id="paint8_linear_3047_3648" x1="40.5479" y1="73.9142" x2="56.5895" y2="90.8366" gradientUnits="userSpaceOnUse">
<stop stop-color="#E5E9F0"/>
<stop offset="1" stop-color="#D2DAE8"/>
</linearGradient>
</defs>
</svg>
