<svg width="19" height="19" viewBox="0 0 19 19" fill="none" xmlns="http://www.w3.org/2000/svg">
<g id="user-key-svgrepo-com 1" clip-path="url(#clip0_3455_13822)">
<path id="Vector" d="M12.805 5.73167C12.805 7.54822 11.3324 9.02083 9.51585 9.02083C7.69929 9.02083 6.22668 7.54822 6.22668 5.73167C6.22668 3.91511 7.69929 2.4425 9.51585 2.4425C11.3324 2.4425 12.805 3.91511 12.805 5.73167Z" stroke="#003F50" stroke-width="2.51" stroke-miterlimit="10"/>
<path id="Vector_2" d="M1.94776 18.6041V17.092C1.94659 15.4378 2.488 13.8289 3.48898 12.5118C4.48996 11.1948 7.40584 9.4417 9 9" stroke="#003F50" stroke-width="2.51" stroke-miterlimit="10" stroke-linecap="round"/>
<path id="Vector_3" d="M13.905 11.7881C13.5329 11.7881 13.1916 11.9946 13.0191 12.3243L12.7888 12.764C12.6163 13.0936 12.275 13.3002 11.9029 13.3002H7.65927C7.39315 13.3002 7.13801 13.4062 6.95032 13.5949L6.43486 14.1131C6.04608 14.5039 6.0469 15.1356 6.43671 15.5254L6.95064 16.0394C7.13817 16.2269 7.39253 16.3323 7.65774 16.3323H11.9425C12.3145 16.3323 12.6558 16.5388 12.8284 16.8684L13.0586 17.3082C13.2312 17.6378 13.5725 17.8443 13.9446 17.8443H15.6114C15.9101 17.8454 16.206 17.7873 16.4822 17.6735C16.7583 17.5597 17.0092 17.3924 17.2204 17.1812C17.4316 16.97 17.5989 16.7191 17.7127 16.443C17.8265 16.1668 17.8846 15.8709 17.8835 15.5723V14.0602C17.8835 13.4576 17.6441 12.8797 17.2181 12.4536C16.792 12.0275 16.214 11.7881 15.6114 11.7881H13.905Z" stroke="#003F50" stroke-width="1.51208" stroke-miterlimit="10"/>
<path id="Vector_4" d="M9.51611 14.8203V16.3324" stroke="#003F50" stroke-width="1.51208" stroke-miterlimit="10"/>
<path id="Vector_5" d="M15.5723 14.0605V15.5726" stroke="#003F50" stroke-width="1.51208" stroke-miterlimit="10"/>
</g>
<defs>
<clipPath id="clip0_3455_13822">
<rect width="19" height="19" fill="white"/>
</clipPath>
</defs>
</svg>
