<svg width="14" height="14" viewBox="0 0 14 14" fill="none" xmlns="http://www.w3.org/2000/svg">
<g id="paperclip">
<path id="Vector" d="M7.93839 1.16699C6.83764 1.16699 5.74563 1.58698 4.90563 2.42523L3.66372 3.66481C3.43505 3.89231 3.43505 4.2569 3.66372 4.48498C3.8918 4.71248 4.25755 4.71248 4.48563 4.48498L5.72757 3.2454C6.95082 2.02448 8.92539 2.02507 10.1486 3.2454L10.1667 3.26349C11.39 4.48382 11.39 6.45431 10.1667 7.67522L6.71456 11.1204C5.97489 11.8577 4.80357 11.832 4.07557 11.1361L4.03822 11.0941C3.29913 10.3562 3.31081 9.16445 4.0499 8.42653L7.40873 5.0864C7.66423 4.83148 8.06615 4.83148 8.32165 5.0864C8.57715 5.34132 8.57715 5.74264 8.32165 5.99814L4.82982 9.49696C4.60115 9.72504 4.60115 10.1077 4.82982 10.3358C5.0579 10.5633 5.44057 10.5417 5.65465 10.3364L9.16224 6.8364C9.87449 6.1259 9.87449 4.95864 9.16224 4.24814C8.8064 3.89231 8.33155 3.71907 7.86489 3.71907C7.39822 3.71907 6.92397 3.89231 6.56814 4.24814L3.12414 7.71196C3.06406 7.77205 3.01972 7.83853 2.9573 7.9132C2.05488 9.11019 2.12022 10.8421 3.21223 11.9318C4.40806 13.1253 6.34064 13.1341 7.53648 11.9406L10.9886 8.49539C12.6686 6.81889 12.6686 4.10114 10.9886 2.42523C10.1492 1.58698 9.03914 1.16699 7.93839 1.16699Z" fill="#5681AA"/>
</g>
</svg>
