<svg width="18" height="18" viewBox="0 0 18 18" fill="none" xmlns="http://www.w3.org/2000/svg">
<g id="realtor-svgrepo-com 2" clip-path="url(#clip0_3569_15112)">
<path id="Vector" d="M17.2397 14.4479V17.3455C17.2397 17.707 16.9466 18 16.5852 18H1.41525C1.05379 18 0.760742 17.707 0.760742 17.3455V14.4479C0.760742 13.1697 1.52207 12.036 2.70271 11.5519L5.57155 10.1271C5.73107 10.048 5.91599 10.0374 6.08372 10.0973C6.25136 10.1574 6.38732 10.2834 6.46011 10.446L7.73413 13.2927L7.94793 12.5769L7.69232 11.9523C7.60977 11.7504 7.63307 11.5207 7.75463 11.3396C7.8762 11.1586 8.07997 11.0499 8.29805 11.0499H9.70227C9.92035 11.0499 10.1241 11.1586 10.2457 11.3396C10.3673 11.5206 10.3906 11.7503 10.308 11.9523L10.0525 12.5769L10.2663 13.2927L11.5403 10.446C11.6131 10.2834 11.749 10.1574 11.9167 10.0973C12.0844 10.0373 12.2693 10.0481 12.4289 10.1271L15.2977 11.5519C16.4783 12.036 17.2397 13.1696 17.2397 14.4479ZM13.5791 6.28222C13.2946 7.36975 12.6503 7.69587 12.2263 7.78995C11.9855 8.25875 11.5336 9.06432 11.0737 9.4935C10.8628 9.69029 10.5923 9.85487 10.2696 9.9829C9.86511 10.1434 9.43794 10.2247 9.0002 10.2247C8.56247 10.2247 8.13529 10.1433 7.73072 9.9829C7.40801 9.85479 7.13748 9.6902 6.92673 9.4935C6.46683 9.06423 6.01487 8.25875 5.77409 7.78995C5.35015 7.69587 4.70576 7.36975 4.42145 6.28222C4.25398 5.64177 4.30276 5.11066 4.56657 4.70355C4.65611 4.56541 4.75917 4.45964 4.86215 4.37874C4.86607 4.24016 4.87663 4.07418 4.89732 3.89092C4.89819 3.88263 4.89801 3.87442 4.89915 3.86613C4.90046 3.85706 4.9022 3.84728 4.90351 3.83803C4.98851 3.14277 5.22963 2.20412 5.88204 1.43093C6.06827 1.21023 6.27056 1.02356 6.47957 0.865782C7.07604 0.353434 7.86311 0 8.881 0C8.92009 0 8.95962 0.000872676 8.99942 0.00183262C8.99959 0.00183262 9.00003 0.00183262 9.0002 0.00183262C9.01478 0.00183262 9.09105 0.00244349 9.21314 0.0124793C11.84 0.184135 12.8207 2.13099 12.9773 3.183C13.0924 3.65154 13.1298 4.07767 13.1384 4.37874C13.2415 4.45964 13.3445 4.56541 13.434 4.70355C13.6977 5.11066 13.7465 5.64177 13.5791 6.28222ZM11.8328 4.7142L11.8263 4.71368C11.8267 4.70809 11.848 4.41286 11.7987 4.00209C11.5081 4.02208 11.1394 4.03997 10.747 4.03997C9.7727 4.03997 9.05946 3.93394 8.56657 3.71577C8.16374 3.53748 7.83466 3.33921 7.57338 3.15193C7.48035 3.32298 7.36629 3.49332 7.22797 3.64273C6.87524 4.02365 6.47197 4.26652 6.17134 4.41051C6.16566 4.59464 6.17361 4.70966 6.17395 4.71368C6.20232 5.03936 5.98633 5.33354 5.67225 5.40737C5.64511 5.42892 5.59293 5.58897 5.68761 5.95104C5.77828 6.29767 5.92498 6.50772 6.08171 6.51689C6.1394 6.49952 6.19542 6.49114 6.24927 6.49114C6.48314 6.49114 6.6767 6.64726 6.78858 6.88795C7.00701 7.3571 7.48035 8.21983 7.81973 8.53661C7.92288 8.63286 8.08765 8.72362 8.29185 8.79553C8.74861 8.95645 9.25127 8.95645 9.70803 8.79553C9.91232 8.72362 10.0772 8.63286 10.1804 8.53652C10.5211 8.21843 10.9937 7.35658 11.2115 6.88786C11.3489 6.59211 11.6098 6.4243 11.9172 6.51645C12.0772 6.50476 12.2225 6.29523 12.3125 5.95096C12.3965 5.6299 12.3718 5.49873 12.3707 5.41583C12.3705 5.39558 12.3718 5.39925 12.3722 5.40571C12.4273 5.06257 12.1796 4.74431 11.8328 4.7142Z" fill="white"/>
</g>
<defs>
<clipPath id="clip0_3569_15112">
<rect width="18" height="18" fill="white"/>
</clipPath>
</defs>
</svg>
