<svg width="24" height="24" viewBox="0 0 24 24" fill="none" xmlns="http://www.w3.org/2000/svg">
<g id="Group">
<path id="Fill 1" d="M17.208 0H6.804C2.736 0 0 2.856 0 7.104V16.908C0 21.144 2.736 24 6.804 24H17.208C21.276 24 24 21.144 24 16.908V7.104C24 2.856 21.276 0 17.208 0Z" fill="white"/>
<path id="Fill 4" d="M15.351 11.1976L13.0455 11.1982L13.0455 8.89341C13.0462 8.45072 12.6865 8.091 12.2438 8.09164C11.7991 8.09035 11.4414 8.44942 11.4414 8.89276L11.4407 11.1982L9.13394 11.1976C8.69061 11.1976 8.33283 11.558 8.33153 12C8.33218 12.4427 8.6919 12.8024 9.13394 12.8024L11.4414 12.8024L11.4407 15.104C11.4407 15.5473 11.8004 15.9071 12.2425 15.9058C12.4648 15.9064 12.6644 15.817 12.8096 15.6718C12.9554 15.5259 13.0449 15.3263 13.0449 15.1046L13.0449 12.8024L15.3517 12.8018C15.5733 12.8018 15.773 12.7123 15.9181 12.5671C16.0633 12.4219 16.1528 12.221 16.1534 12C16.1534 11.5567 15.7944 11.1976 15.351 11.1976Z" fill="#5681AA"/>
</g>
</svg>
