<svg width="24" height="25" viewBox="0 0 24 25" fill="none" xmlns="http://www.w3.org/2000/svg">
<g id="Plus">
<path id="Fill 1" fill-rule="evenodd" clip-rule="evenodd" d="M11.7859 17.1887C11.3331 17.1887 10.9656 16.8212 10.9656 16.3684V8.35449C10.9656 7.90168 11.3331 7.53418 11.7859 7.53418C12.2387 7.53418 12.6062 7.90168 12.6062 8.35449V16.3684C12.6062 16.8212 12.2387 17.1887 11.7859 17.1887Z" fill="#5681AA"/>
<path id="Fill 3" fill-rule="evenodd" clip-rule="evenodd" d="M15.7961 13.1816H7.77563C7.32173 13.1816 6.95532 12.8141 6.95532 12.3613C6.95532 11.9085 7.32173 11.541 7.77563 11.541H15.7961C16.2489 11.541 16.6164 11.9085 16.6164 12.3613C16.6164 12.8141 16.2489 13.1816 15.7961 13.1816Z" fill="#5681AA"/>
<path id="Fill 5" fill-rule="evenodd" clip-rule="evenodd" d="M6.66058 2.25488C3.6287 2.25488 1.6687 4.32973 1.6687 7.54316V17.201C1.6687 20.4144 3.6287 22.4893 6.66058 22.4893H16.9112C19.9442 22.4893 21.9031 20.4144 21.9031 17.201V7.54316C21.9031 4.32973 19.9442 2.25488 16.9112 2.25488H6.66058ZM16.9112 24.1299H6.66058C2.69354 24.1299 0.0280762 21.3452 0.0280762 17.201V7.54316C0.0280762 3.39895 2.69354 0.614258 6.66058 0.614258H16.9112C20.8782 0.614258 23.5437 3.39895 23.5437 7.54316V17.201C23.5437 21.3452 20.8782 24.1299 16.9112 24.1299Z" fill="#5681AA"/>
</g>
</svg>
