<svg width="24" height="24" viewBox="0 0 24 24" fill="none" xmlns="http://www.w3.org/2000/svg">
<path d="M19.51 5.85L13.57 2.42C12.6 1.86 11.4 1.86 10.42 2.42L4.49 5.85C3.52 6.41 2.92 7.45 2.92 8.58V15.42C2.92 16.54 3.52 17.58 4.49 18.15L10.43 21.58C11.4 22.14 12.6 22.14 13.58 21.58L19.52 18.15C20.49 17.59 21.09 16.55 21.09 15.42V8.58C21.08 7.45 20.48 6.42 19.51 5.85ZM12 7.34C12 7.34 9.67 8.38 9.67 9.67C9.67 8.39 11.9419 7.367 12 7.34ZM14.68 16.66H9.32C10.1227 16.66 10.6 16.66 12.11 16.66C13.62 16.66 14.5 16.66 14.68 16.66Z" fill="#232B42"/>
<path d="M6.672 16V8.41454H9.584C10.1067 8.41454 10.5682 8.50618 10.9687 8.68945C11.376 8.87273 11.695 9.14424 11.9258 9.504C12.1566 9.86376 12.272 10.3084 12.272 10.8378C12.272 11.3537 12.1532 11.7915 11.9156 12.1513C11.6848 12.511 11.3658 12.7859 10.9585 12.976C10.5581 13.1593 10.0999 13.2509 9.584 13.2509H8.25018V16H6.672ZM8.25018 11.8764H9.59418C9.81818 11.8764 10.0116 11.8322 10.1745 11.744C10.3375 11.6558 10.463 11.5336 10.5513 11.3775C10.6463 11.2213 10.6938 11.0415 10.6938 10.8378C10.6938 10.6274 10.6463 10.4441 10.5513 10.288C10.463 10.1319 10.3375 10.0097 10.1745 9.92145C10.0116 9.83321 9.81818 9.78909 9.59418 9.78909H8.25018V11.8764ZM12.6224 16V8.41454H14.2006V14.6255H17.4079V16H12.6224Z" fill="white"/>
</svg>
