<svg width="14" height="14" viewBox="0 0 14 14" fill="none" xmlns="http://www.w3.org/2000/svg">
<g id="screwdriver">
<path id="Vector 626 (Stroke)" fill-rule="evenodd" clip-rule="evenodd" d="M11.4858 2.51457C11.2445 2.27335 10.8534 2.27335 10.6122 2.51457L8.34758 4.77922C8.10636 5.02044 8.10636 5.41153 8.34758 5.65274C8.5888 5.89396 8.97989 5.89396 9.22111 5.65275L11.4858 3.3881C11.727 3.14688 11.727 2.75579 11.4858 2.51457ZM9.78727 1.68961C10.4841 0.992784 11.6139 0.992786 12.3107 1.68961C13.0075 2.38644 13.0075 3.51623 12.3107 4.21306L10.0461 6.4777C9.34923 7.17453 8.21945 7.17453 7.52262 6.4777C6.82579 5.78087 6.82579 4.65109 7.52262 3.95426L9.78727 1.68961Z" fill="#232C41"/>
<path id="Subtract" fill-rule="evenodd" clip-rule="evenodd" d="M7.17773 5.99316L7.16189 6.00891L4.41847 8.74541H3.50701C3.32344 8.74541 3.14325 8.83519 3.03305 8.9821L1.28305 11.314C1.10893 11.546 1.1325 11.8742 1.33777 12.0795L1.9211 12.6624C2.12638 12.8676 2.4545 12.891 2.68673 12.7167L5.02006 10.9677C5.16695 10.8581 5.25701 10.678 5.25701 10.4943L5.24698 9.56974L7.99465 6.82858L8.00291 6.82033C7.82938 6.73582 7.66672 6.6215 7.52258 6.47736C7.37737 6.33215 7.26242 6.16814 7.17773 5.99316Z" fill="#232C41"/>
</g>
</svg>
