<svg width="18" height="18" viewBox="0 0 18 18" fill="none" xmlns="http://www.w3.org/2000/svg">
<g id="search-svgrepo-com 1" clip-path="url(#clip0_3569_15389)">
<path id="Vector" d="M14.498 7.3247C14.498 7.68025 14.2273 7.97256 13.8808 8.00674V10.5521C13.8808 10.9307 13.5739 11.2375 13.1955 11.2375H8.27207C7.89359 11.2375 7.58674 10.9307 7.58674 10.5521V8.00646C7.33555 7.98079 7.11642 7.81804 7.02075 7.58028C6.9164 7.32068 6.98036 7.0237 7.18231 6.83008L10.2593 3.87933C10.5244 3.62503 10.9428 3.62503 11.208 3.87933L14.2559 6.80202C14.404 6.92767 14.498 7.11526 14.498 7.3247ZM15.795 12.6816C14.4312 14.0044 12.634 14.7327 10.7346 14.7327H10.7344C9.16565 14.7327 7.67976 14.2408 6.44325 13.3317L2.02882 17.6131C1.90089 17.7372 1.72965 17.8065 1.55165 17.8065C1.54818 17.8065 1.54462 17.8065 1.54114 17.8064C1.35939 17.8036 1.18624 17.7287 1.05968 17.5983L0.193332 16.705C-0.0701082 16.4333 -0.0635291 15.9994 0.208226 15.736L4.64339 11.4346C3.85527 10.2314 3.44252 8.82182 3.465 7.35184C3.49469 5.41026 4.27871 3.59642 5.67267 2.2445C7.03647 0.921726 8.83358 0.193359 10.7331 0.193359C12.7176 0.193359 14.5711 0.97774 15.9523 2.40194C18.743 5.27941 18.6723 9.89084 15.795 12.6816ZM14.9684 3.35619C13.8475 2.20055 12.3434 1.56402 10.733 1.56402C9.19178 1.56402 7.73349 2.15513 6.62683 3.22845C5.49576 4.32534 4.85959 5.79724 4.83547 7.37276C4.81135 8.94829 5.40228 10.4389 6.49926 11.57C7.62 12.7255 9.12416 13.3621 10.7345 13.3621C12.2758 13.3622 13.734 12.771 14.8408 11.6976C17.1756 9.43314 17.2329 5.69115 14.9684 3.35619Z" fill="#669BBC"/>
</g>
<defs>
<clipPath id="clip0_3569_15389">
<rect width="18" height="18" fill="white"/>
</clipPath>
</defs>
</svg>
