<svg width="20" height="21" viewBox="0 0 20 21" fill="none" xmlns="http://www.w3.org/2000/svg">
<g id="Setting">
<g id="Group 3">
<mask id="mask0_2955_15038" style="mask-type:luminance" maskUnits="userSpaceOnUse" x="0" y="0" width="20" height="21">
<path id="Clip 2" fill-rule="evenodd" clip-rule="evenodd" d="M0 0.000976562H19.2849V20.722H0V0.000976562Z" fill="white"/>
</mask>
<g mask="url(#mask0_2955_15038)">
<path id="Fill 1" fill-rule="evenodd" clip-rule="evenodd" d="M5.20232 15.441C5.43132 15.441 5.66032 15.47 5.88432 15.53C6.56032 15.712 7.14732 16.164 7.49532 16.771C7.72132 17.152 7.84632 17.597 7.85032 18.051C7.85032 18.701 8.37232 19.222 9.01432 19.222H10.2673C10.9063 19.222 11.4283 18.704 11.4313 18.065C11.4273 17.359 11.7033 16.688 12.2083 16.183C12.7063 15.685 13.4023 15.386 14.0983 15.406C14.5543 15.417 14.9933 15.54 15.3803 15.76C15.9373 16.079 16.6483 15.889 16.9703 15.339L17.6343 14.232C17.7823 13.977 17.8253 13.657 17.7463 13.362C17.6683 13.067 17.4723 12.811 17.2083 12.66C16.5903 12.304 16.1493 11.73 15.9663 11.042C15.7853 10.367 15.8843 9.62998 16.2373 9.02298C16.4673 8.62298 16.8043 8.28598 17.2083 8.05398C17.7503 7.73698 17.9403 7.02798 17.6253 6.47598C17.6123 6.45398 17.6003 6.43098 17.5903 6.40698L17.0043 5.39098C16.6853 4.83598 15.9753 4.64498 15.4183 4.96198C14.8163 5.31798 14.1003 5.41998 13.4123 5.23898C12.7253 5.06098 12.1493 4.62598 11.7903 4.01198C11.5603 3.62798 11.4353 3.18098 11.4313 2.72598C11.4403 2.38398 11.3203 2.07698 11.1023 1.85198C10.8853 1.62798 10.5803 1.50098 10.2673 1.50098H9.01432C8.70432 1.50098 8.41432 1.62198 8.19532 1.83998C7.97732 2.05898 7.85832 2.34998 7.86032 2.65998C7.83932 4.12198 6.64432 5.29898 5.19732 5.29898C4.73332 5.29398 4.28632 5.16898 3.89832 4.93698C3.35332 4.62698 2.64132 4.81798 2.32232 5.37298L1.64532 6.48598C1.33532 7.02398 1.52532 7.73498 2.07732 8.05598C2.89632 8.52998 3.40732 9.41398 3.40732 10.362C3.40732 11.31 2.89632 12.193 2.07532 12.668C1.52632 12.986 1.33632 13.693 1.65432 14.243L2.28532 15.331C2.44132 15.612 2.69632 15.815 2.99132 15.898C3.28532 15.98 3.60932 15.945 3.87932 15.795C4.27632 15.562 4.73832 15.441 5.20232 15.441ZM10.2673 20.722H9.01432C7.54532 20.722 6.35032 19.528 6.35032 18.059C6.34832 17.878 6.29632 17.69 6.19932 17.527C6.04232 17.253 5.78832 17.057 5.49532 16.979C5.20432 16.901 4.88532 16.944 4.62332 17.096C3.99532 17.446 3.25632 17.531 2.58032 17.341C1.90532 17.15 1.32232 16.686 0.98032 16.071L0.35532 14.994C-0.37568 13.726 0.0593197 12.101 1.32532 11.369C1.68432 11.162 1.90732 10.776 1.90732 10.362C1.90732 9.94798 1.68432 9.56098 1.32532 9.35398C0.0583198 8.61798 -0.37568 6.98898 0.35432 5.72098L1.03232 4.60798C1.75332 3.35398 3.38332 2.91198 4.65432 3.64198C4.82732 3.74498 5.01532 3.79698 5.20632 3.79898C5.82932 3.79898 6.35032 3.28498 6.36032 2.65298C6.35632 1.95598 6.63132 1.28698 7.13232 0.781977C7.63532 0.277977 8.30332 0.000976562 9.01432 0.000976562H10.2673C10.9833 0.000976562 11.6793 0.294977 12.1783 0.805977C12.6763 1.31998 12.9513 2.02498 12.9303 2.73998C12.9323 2.90098 12.9853 3.08698 13.0813 3.24998C13.2403 3.51998 13.4913 3.70998 13.7893 3.78798C14.0873 3.86198 14.3993 3.82198 14.6643 3.66498C15.9443 2.93398 17.5733 3.37198 18.3043 4.64198L18.9273 5.72098C18.9433 5.74998 18.9573 5.77798 18.9693 5.80698C19.6313 7.05798 19.1893 8.63298 17.9593 9.35198C17.7803 9.45498 17.6353 9.59898 17.5353 9.77298C17.3803 10.042 17.3373 10.362 17.4153 10.656C17.4953 10.956 17.6863 11.205 17.9553 11.359C18.5623 11.708 19.0153 12.296 19.1963 12.975C19.3773 13.653 19.2783 14.389 18.9253 14.996L18.2613 16.102C17.5303 17.358 15.9013 17.793 14.6343 17.061C14.4653 16.964 14.2703 16.911 14.0763 16.906H14.0703C13.7813 16.906 13.4843 17.029 13.2683 17.244C13.0493 17.463 12.9293 17.755 12.9313 18.065C12.9243 19.534 11.7293 20.722 10.2673 20.722Z" fill="#111111"/>
</g>
</g>
<path id="Fill 4" fill-rule="evenodd" clip-rule="evenodd" d="M9.64503 8.47461C8.60503 8.47461 7.75903 9.32161 7.75903 10.3616C7.75903 11.4016 8.60503 12.2466 9.64503 12.2466C10.685 12.2466 11.531 11.4016 11.531 10.3616C11.531 9.32161 10.685 8.47461 9.64503 8.47461ZM9.64503 13.7466C7.77803 13.7466 6.25903 12.2286 6.25903 10.3616C6.25903 8.49461 7.77803 6.97461 9.64503 6.97461C11.512 6.97461 13.031 8.49461 13.031 10.3616C13.031 12.2286 11.512 13.7466 9.64503 13.7466Z" fill="#111111"/>
</g>
</svg>
