<svg width="15" height="16" viewBox="0 0 15 16" fill="none" xmlns="http://www.w3.org/2000/svg">
<g id="Icon - Edit">
<g id="Document">
<path id="Fill 1" fill-rule="evenodd" clip-rule="evenodd" d="M10.0667 11.854H4.35083C4.02308 11.854 3.75708 11.588 3.75708 11.2603C3.75708 10.9325 4.02308 10.6665 4.35083 10.6665H10.0667C10.3944 10.6665 10.6604 10.9325 10.6604 11.2603C10.6604 11.588 10.3944 11.854 10.0667 11.854Z" fill="#5681AA"/>
<path id="Fill 3" fill-rule="evenodd" clip-rule="evenodd" d="M10.0667 8.53955H4.35083C4.02308 8.53955 3.75708 8.27355 3.75708 7.9458C3.75708 7.61805 4.02308 7.35205 4.35083 7.35205H10.0667C10.3944 7.35205 10.6604 7.61805 10.6604 7.9458C10.6604 8.27355 10.3944 8.53955 10.0667 8.53955Z" fill="#5681AA"/>
<path id="Fill 5" fill-rule="evenodd" clip-rule="evenodd" d="M6.53166 5.23291H4.35062C4.02287 5.23291 3.75687 4.96691 3.75687 4.63916C3.75687 4.31141 4.02287 4.04541 4.35062 4.04541H6.53166C6.85941 4.04541 7.12541 4.31141 7.12541 4.63916C7.12541 4.96691 6.85941 5.23291 6.53166 5.23291Z" fill="#5681AA"/>
<g id="Group 9">
<mask id="mask0_5368_6824" style="mask-type:luminance" maskUnits="userSpaceOnUse" x="0" y="0" width="15" height="16">
<path id="Clip 8" fill-rule="evenodd" clip-rule="evenodd" d="M0 0H14.3804V15.7619H0V0Z" fill="white"/>
</mask>
<g mask="url(#mask0_5368_6824)">
<path id="Fill 7" fill-rule="evenodd" clip-rule="evenodd" d="M10.2194 1.18799L4.13226 1.19115C2.28926 1.20224 1.18726 2.34224 1.18726 4.24145V11.5216C1.18726 13.4335 2.29955 14.5751 4.16076 14.5751L10.2479 14.5727C12.0909 14.5616 13.1929 13.42 13.1929 11.5216V4.24145C13.1929 2.32957 12.0814 1.18799 10.2194 1.18799ZM4.16155 15.7626C1.67255 15.7626 -0.000244141 14.0581 -0.000244141 11.5216V4.24145C-0.000244141 1.68199 1.6203 0.0186966 4.1283 0.00365495L10.2186 0.000488281H10.2194C12.7084 0.000488281 14.3804 1.70495 14.3804 4.24145V11.5216C14.3804 14.0803 12.7598 15.7444 10.2518 15.7602L4.16155 15.7626Z" fill="#5681AA"/>
</g>
</g>
</g>
</g>
</svg>
