<svg width="20" height="18" viewBox="0 0 20 18" fill="none" xmlns="http://www.w3.org/2000/svg">
<g id="Group 1000004257">
<path id="Vector" d="M18.9034 11.1477C18.844 10.8508 18.4878 10.6727 18.1909 10.7321C17.7753 10.8508 17.4784 10.7321 17.419 10.6133C17.3597 10.4946 17.419 10.1977 17.7159 9.84146C17.9534 9.60396 17.9534 9.2477 17.7159 9.0102C17.1222 8.41645 16.4097 8.00083 15.5784 7.76333C15.2815 7.70395 14.9253 7.88208 14.8659 8.17895C14.7472 8.59458 14.5097 8.7727 14.3315 8.7727C14.1534 8.7727 13.9753 8.5352 13.7972 8.17895C13.6784 7.88208 13.3815 7.70395 13.0847 7.76333C12.2534 8.00083 11.5409 8.41645 10.9472 9.0102C10.7097 9.2477 10.7097 9.60396 10.9472 9.84146C11.244 10.1383 11.3034 10.4352 11.244 10.6133C11.1847 10.7321 10.8878 10.8508 10.4722 10.7321C10.1753 10.6727 9.81904 10.8508 9.75967 11.1477C9.64092 11.5633 9.58154 11.979 9.58154 12.3946C9.58154 12.8102 9.64092 13.2258 9.75967 13.6415C9.81904 13.9383 10.1753 14.1165 10.4722 14.0571C10.8878 13.9383 11.1847 14.0571 11.244 14.1758C11.3034 14.2946 11.244 14.5915 10.9472 14.9477C10.7097 15.1852 10.7097 15.5415 10.9472 15.779C11.5409 16.3727 12.2534 16.7883 13.0847 17.0258C13.144 17.0258 13.2034 17.0258 13.2628 17.0258C13.5003 17.0258 13.7378 16.8477 13.8565 16.6102C13.9753 16.1946 14.2128 16.0165 14.3909 16.0165C14.569 16.0165 14.7472 16.254 14.9253 16.6102C15.044 16.9071 15.3409 17.0852 15.6378 17.0258C16.469 16.7883 17.1815 16.3727 17.7753 15.779C18.0128 15.5415 18.0128 15.1852 17.7753 14.9477C17.4784 14.6508 17.419 14.354 17.4784 14.1758C17.5378 14.0571 17.8347 13.9383 18.2503 14.0571C18.5472 14.1165 18.9034 13.9383 18.9628 13.6415C19.0815 13.2258 19.1409 12.8102 19.1409 12.3946C19.1409 11.979 19.0222 11.5633 18.9034 11.1477ZM14.3315 14.7696C13.0253 14.7696 11.9565 13.7008 11.9565 12.3946C11.9565 11.0883 13.0253 10.0196 14.3315 10.0196C15.6378 10.0196 16.7065 11.0883 16.7065 12.3946C16.7065 13.7008 15.6378 14.7696 14.3315 14.7696Z" fill="#003F50"/>
<path id="Vector_2" d="M8.39414 12.3945C8.39414 11.682 8.51289 11.0289 8.75039 10.4352C8.75039 10.3758 8.75039 10.3758 8.75039 10.3164L8.80977 10.257C9.10664 9.54453 9.46289 8.95078 9.93789 8.41641C9.99727 8.17891 10.0566 8.00078 10.116 7.76328C10.116 7.58516 10.116 7.40703 9.99727 7.28828C9.87852 7.16953 9.70039 7.05078 9.52227 7.05078C8.86914 7.05078 8.27539 6.81328 7.80039 6.45703H11.3629C11.7191 6.45703 11.9566 6.21953 11.9566 5.86328C11.9566 5.50703 11.7191 5.26953 11.3629 5.26953H11.2441V5.15078C11.2441 4.08203 10.8879 3.13203 10.2941 2.30078L9.87852 3.78516C9.81914 4.02266 9.58164 4.20078 9.28477 4.20078C9.22539 4.20078 9.16602 4.20078 9.10664 4.20078C8.80977 4.08203 8.63164 3.78516 8.69102 3.48828L9.40352 1.05391C9.40352 0.875781 9.28477 0.697656 9.10664 0.578906C7.56289 -0.192969 5.72227 -0.192969 4.17852 0.578906C3.94102 0.578906 3.88164 0.816406 3.82227 0.994531L4.53477 3.42891C4.65352 3.72578 4.41602 4.08203 4.11914 4.14141C4.05977 4.14141 4.00039 4.14141 3.94102 4.14141C3.70352 4.14141 3.46602 3.96328 3.34727 3.72578L2.99102 2.30078C2.39727 3.13203 2.04102 4.08203 2.04102 5.15078V5.26953H1.86289C1.50664 5.26953 1.26914 5.50703 1.26914 5.86328C1.26914 6.21953 1.50664 6.45703 1.86289 6.45703H3.05039V7.05078C3.05039 8.35703 3.58477 9.54453 4.47539 10.3164C4.35664 11.1477 3.82227 11.8602 2.99102 12.0977C1.50664 12.5133 0.378516 13.8195 0.0222656 15.482C-0.0371094 15.7789 0.0222656 16.0164 0.200391 16.2539C0.437891 16.432 0.675391 16.5508 0.972266 16.5508H10.116C9.04727 15.482 8.39414 13.9977 8.39414 12.3945Z" fill="#003F50"/>
</g>
</svg>
